<?xml version="1.0" encoding="UTF-8"?>
<svg id="Layer_1" data-name="Layer 1" xmlns="http://www.w3.org/2000/svg" viewBox="0 0 370.08 359.99">
  <defs>
    <style>
      .cls-1 {
        fill: #4a573e;
      }

      .cls-2 {
        fill: #7f2e23;
      }

      .cls-3 {
        fill: #525c40;
      }

      .cls-4 {
        fill: #152c3d;
      }

      .cls-5 {
        fill: #70392d;
      }

      .cls-6 {
        fill: #925e55;
      }

      .cls-7 {
        fill: #872d21;
      }

      .cls-8 {
        fill: #752c21;
      }

      .cls-9 {
        fill: #112d42;
      }

      .cls-10 {
        fill: #132735;
      }

      .cls-11 {
        fill: #1c2e3c;
      }

      .cls-12 {
        fill: #515d4d;
      }
    </style>
  </defs>
  <path class="cls-11" d="m369.87,190.78c-2.36,2.24-4.85,4.37-7.03,6.78-.98,1.08-1.69,2.66-1.91,4.11-2.5,16.53-6.05,32.75-13.13,48.02-7.1,15.31-16.04,29.51-27.7,41.68-3.62,3.79-2.99,7.63-2.91,11.38.2,9.31-10.28,13.25-17.31,10.22-2.52-1.09-4.16-.75-6.16.79-12.95,9.99-26.92,18.19-42.21,24.06-3.78,1.45-7.62,2.72-11.44,4.07-1.76-1.51-3.29-2.01-4.03.92,0,0,.02-.01.02-.01-1.31.04-2.65-.07-3.93.14-5.54.92-5.95.45-4.11-5,19.19-6.36,38.07-13.37,53.67-25.08-13.78-1.44-28.16-2.95-42.93-4.49-2.94,3.7-6.16,8.64-10.24,12.7-6.86,6.82-14.26,13.09-21.44,19.59-.02.37-.05.75-.07,1.12-2.33-1.8-4.12-4.69-7.37-.38-1.7,2.25-5.66-.07-6.59-3.43,1.97-.71,4.17-1.07,5.88-2.18,11.39-7.37,21.05-16.63,29.11-27.54.9-1.22,1.22-2.86,1.81-4.31,0,0,.22-.22.22-.22,3.96-.42,4.8-3.2,4.93-6.52,3.65-8.79,7.3-17.57,10.95-26.36,3.12-.32,6.24-.64,9.35-.96-3.67,10.18-7.34,20.36-11.1,30.81,1.42,0,2.82-.3,4.03.05,11.34,3.24,22.94,1.91,34.44,1.84,4.55-.03,8.95-.71,11.08-6.37,2.12-5.65,7.03-7.95,13.23-7.63,1.58.08,3.97-.88,4.75-2.14,8.39-13.63,11.74-28.32,8.99-44.59-11.98,8.28-24.22,14.65-37.53,18.86-1.02-2.61-2.04-5.22-3.05-7.83,13.79-3.8,25.62-11.51,37.52-19.03.63-.4.75-2.13.59-3.15-1.86-11.56-7.78-21.36-13.69-31.15-.52-.87-1.72-1.32-2.61-1.97,0-.61,0-1.22,0-1.82,6.84,2.77,7.03,2.69,8.04-3.09,5.87,10.8,11.73,21.59,17.78,32.73-.3.12.75-.04,1.45-.63,8.39-7.02,14.71-15.68,19.3-25.54.65-1.4.01-3.87-.83-5.41-4.18-7.55-3.73-12.4,2.08-18.45-1.03-2.23-2.05-4.43-3.07-6.62-4.96-9.11-11.19-17.13-19.25-23.62-2.66,5.88-5.09,11.24-7.52,16.59-.51-.14-1.02-.27-1.52-.41.14.81.27,1.61.4,2.42-.24.36-.48.72-.71,1.08-6.17,1.64-4.52-3.37-5.34-6.28l-.06.05c.16-.03.45-.04.45-.08.01-.24-.04-.49-.06-.73,2.3-6.21,4.61-12.43,6.89-18.58-12.32-9.18-25.34-15.76-39.15-20.87.04-.54.08-1.09.12-1.63.62-1.65,1.24-3.3,1.86-4.95.16-.52.32-1.03.48-1.55,7.2,3.25,14.52,6.26,21.57,9.81,5.7,2.87,11.07,6.39,16.69,9.69,2.59-16.54,1.26-32.14-6.96-46.88-8.09.82-14-1.62-15.89-10.47-.22-1.05-2.34-2.14-3.74-2.43-12.65-2.63-24.98-.35-36.95,2.37,2.08,9.66,4.09,18.99,6.09,28.32-2.38.48-4.76.95-7.14,1.43-.36-.1-.71-.19-1.07-.28-.27-.36-.53-.71-.8-1.07-.7-4.73-.85-9.63-2.2-14.16-3.74-12.49-1.42-13.55-15.88-6.69-2.33,1.28-4.67,2.56-7,3.84,0,0-.32.24-.32.24-3.93,1.98-7.85,3.97-11.78,5.95-2.4,1.72-4.81,3.45-7.21,5.17-4.87,3.26-9.75,6.52-14.62,9.78-.37-.02-.74-.04-1.11-.05-1.32-2.28-2.64-4.56-3.96-6.83,5.09-4.08,10.18-8.15,15.27-12.23,2.25-1.39,4.49-2.78,6.74-4.17,3.37-1.56,6.72-3.16,10.11-4.66,7.29-3.24,14.61-6.43,22.27-9.8-2.5-4.11-4.88-8.02-7.27-11.94,2.07.72,4.14,1.44,7.56,2.62-1.08-2.7-1.65-4.55-2.52-6.25-1.81-3.55-3.78-7.02-5.69-10.52,5.62,7.74,11.23,15.48,16.59,22.86,12.71-1.35,25.84-2.73,39.66-4.2-9.4-6.31-18.68-12.54-27.95-18.77,1.32-.46,2.64-.92,3.95-1.38-.47-.55-.95-1.11-1.42-1.66-.83,1.03-1.66,2.05-2.48,3.08-2.67-1.34-5.33-2.68-8-4.01,2.31-.32,4.61-.63,7.6-1.04-1.6-2.1-2.87-3.76-4.14-5.43,15.13,6.6,28.29,16.13,40.64,26.95,1.07.93,3.06,1.53,4.43,1.27,5.93-1.11,11.19-.36,15.52,4.19.48,1.02.95,2.04,1.43,3.06.2,1.62,1.03,3.48.5,4.81-2.5,6.3,1.12,10.38,4.68,14.64,1.98,2.37,3.73,4.93,5.59,7.4,1.55,2.47,3.1,4.94,4.65,7.4,1.75,3.2,3.49,6.4,5.24,9.6,1.6,3.43,3.19,6.87,4.79,10.3,2.45,7.23,4.91,14.46,7.36,21.7,0,.68,0,1.35,0,2.03l.71,1.11c1.55,9.52,3.1,19.03,4.67,28.73,8.5,2.64,8.98,9.6,8.31,17.14Zm-15.96-1.92c1.55.84,3.84,2.78,4.5,2.33,1.87-1.28,3.07-3.53,4.53-5.4.2-4.72-2.54-6.09-8.07-4.02-.32.29-.65.58-.97.88-3,2.08-2.96,4.16.01,6.23Zm-2.74-31.81c-3.25-19.02-9.67-36.85-20.33-53.91-.51,1.28-.87,1.73-.81,2.11,1.45,9.34,1.96,18.63-.75,27.88-.28.96.7,2.65,1.56,3.54,6.59,6.74,13.29,13.36,20.32,20.38Zm-22.38,108.82c8.73-8.86,21.72-41.33,20.7-49.05-6.26,5.91-12.89,12.07-19.35,18.39-.76.75-.98,2.37-.95,3.57.15,5.91.6,11.81.67,17.71.03,2.68-.59,5.37-1.07,9.38Zm-28.94,37.06c-.17,2.21,2.15,3.55,5.22,3.78,3.77.28,5.86-2.53,5.44-5.46-.29-2.02-3.07-4.74-5.17-5.2-3.4-.76-5.24,1.92-5.5,6.88Zm11.87-237.19c-3.59-.08-5.84,1.2-5.68,4.81.15,3.4,1.72,5.39,5.6,5.33,3.68-.06,5.22-2.07,5.17-5.18-.05-3.13-1.73-5.31-5.08-4.96Z"/>
  <path class="cls-11" d="m206.02,349.53c-4.88-.28-9.18.26-11.2,5.82-.51,1.41-2.5,2.29-3.81,3.41,0,0,.01-.02.01-.02-.99.42-1.99.83-2.98,1.25-2-.06-4-.13-6-.19-3.47-2.6-6.94-5.2-10.4-7.81.28-.38.56-.75.84-1.13-19.06-1.89-37.55-6.21-55.39-13.24-1.63-.63-3.27-1.26-4.9-1.88-6.35-3.35-12.7-6.71-19.05-10.06-3.66-2.33-7.33-4.67-10.99-7-2.65-2.12-5.23-4.34-8-6.28-.59-.42-1.96.04-2.88.35-5.38,1.83-10.47,1.74-15.08-2.04-.87-1.36-1.74-2.72-2.61-4.07-.05-3.06-.08-6.11-.16-9.17-.02-.8.06-1.83-.38-2.35-3.53-4.18-7.18-8.27-10.79-12.38-1.56-2.38-3.13-4.75-4.69-7.13-3.52-5.61-7.04-11.22-10.56-16.83-1.62-3.32-3.24-6.65-4.86-9.97-2.63-6.36-5.26-12.71-7.89-19.07-.08-.99-.15-1.98-.23-2.97-.49-.25-.98-.5-1.47-.76.19-.13.39-.25.58-.38-.05-.47-.1-.94-.15-1.4-1.55-7.84-3.1-15.68-4.65-23.52-.55-1.24-.84-2.7-1.69-3.68-1.65-1.9-3.62-3.53-5.46-5.26-.39-1.34-.79-2.67-1.18-4.01,0-1,0-1.99,0-2.99.07-1.3.14-2.6.22-3.9.68-1.02,1.36-2.03,2.03-3.05,0,0-.03.03-.03.03.36-.34.72-.68,1.08-1.02l-.06.06c.37-.34.73-.69,1.1-1.03,0,0-.06.06-.06.06,2.56-1.73,6.67-2.43,4.78-7.14.8-5,1.61-10.01,2.41-15.01,1.29-.41,2.57-.82,4.68-1.49v6.5c-6.65,3.42-3.07,10.45-5.1,13.74,2.13,3.48,3.6,5.89,5.08,8.3-2.01.64-4.02,1.28-6.03,1.91h0c-4.27,1.41-3.92,3.56-.97,6.12,2.49,4.14,4.35,4.12,8.02-.09v-5.99s.02,0,.02,0c-.02-.33-.02-.65-.02-.98,1.64-.19,3.27-.37,4.9-.56.24-.36.48-.72.72-1.09-5.19-3.02-7.45-7.12-6.01-13.91,1.14,2.08,1.69,3.09,2.22,4.05,2.21-1.88,4.11-3.49,6.02-5.11-1.07,1.82-2.49,3.54-3.1,5.51-.57,1.85-1.12,4.52-.23,5.87,4.04,6.09,6.03,13.14-1.45,20.16,5.51,11.7,13.01,21.82,22.79,29.28,4.87-9.72,9.62-19.46,14.65-29.06,1.64-3.14,3.72-5.76.87-9.39-.83-1.06-1.02-3.79-.26-4.74,3.61-4.51.23-7.08-2.24-10.01-1.99-3.99-3.98-7.98-5.97-11.97,5.08,1.7,6.2-1.18,6.2-5.36,1.95,3.59,3.97,7.15,5.84,10.78,2.75,5.31,6.31,9.1,13,7.56,1.7,2.01,3.4,4.01,5.1,6.02l-.25,1.95c-2.19-1.09-4.38-2.18-7.17-3.57-1.8.57-4.45,1.41-7.67,2.43,0,2.43.24,5.08-.05,7.68-.46,4.14,1.78,5.11,5.05,4.37,2.79-.63,5.42-1.94,8.12-2.94-.34,1.14-.47,2.42-1.08,3.39-.8,1.28-1.97,2.31-2.99,3.45-2.54.62-6.29.39-7.41,2-7.23,10.34-12.75,21.59-15.69,35.38,12.62,6.26,25.31,12.56,38,18.85-1.15,2.45-2.3,4.9-3.45,7.36-12.17-5.77-24.35-11.54-36.4-17.26-.24.74-.96,1.95-1.01,3.2-.61,14.56,2.84,28.12,10.55,40.48.73,1.17,2.89,2.07,4.37,2.04,8.28-.18,11.68,2.1,14.74,9.77.56,1.4,2.48,3.09,3.88,3.19,8.73.63,17.49,1.28,26.23,1.07,6.12-.15,12.2-1.65,18.71-2.61-1.48-3.35-2.75-5.87-3.73-8.5-2.68-7.22-5.24-14.48-7.85-21.73,2.97.32,5.94.63,8.92.95,4.02,8.95,8.04,17.89,12.07,26.84,1.51,2.11,3.01,4.23,4.52,6.34.55,1.45.7,3.29,1.7,4.28,8.78,8.69,17.76,17.18,26.57,25.85,3.75,3.68,7.55,4.74,11.97,1.33,2.4.13,4.79.27,7.19.4.45,1.62.8,3.29,1.39,4.86.77,2.04,1.85,3.95,2.57,6,.43,1.24.43,2.63.57,3.63,4.62-.94,8.54-1.73,12.47-2.53.32.58.65,1.16.97,1.74Zm-24.99.28c.33.33.66.66.99,1v.02c2.03,3.29,4.82,2.23,6.65.38,1.32-1.33,2.26-4.17,1.77-5.87-.54-1.88-2.21-4.82-5.47-2.59-.32.03-.63.06-.95.08-5.52.37-4.58,3.54-3.01,6.98h.01Zm-95.12-38.89c14.46,10.57,29.58,17.95,45.53,23.45,7.98,2.75,16.42,4.15,24.68,6.05.75.17,2.03-.25,2.43-.84.32-.47-.09-1.76-.56-2.4-.87-1.18-2.06-2.11-3.06-3.2-7.08-7.67-14.49-15.08-21.06-23.17-2.52-3.1-4.59-3.18-7.86-2.64-8.36,1.38-16.75,2.75-25.19,3.5-4.66.41-9.43-.43-14.92-.76ZM20.01,215.65c2.56,16.56,13.01,39.88,21.03,49.76.06-.53.16-1,.16-1.47.03-8.31.11-16.63,0-24.94-.02-1.47-.38-3.37-1.33-4.32-6.56-6.5-13.31-12.8-19.87-19.04Zm44.63,91.96c.79-.02,1.58-.04,2.38-.06,1.34-2.09,3.96-4.36,3.69-6.22-.3-2.04-3.16-5.01-5.06-5.14-1.69-.11-5,3.07-5.06,4.88-.07,2.13,2.58,4.36,4.06,6.54Z"/>
  <path class="cls-10" d="m13.93,143.81c.1-.67.2-1.34.29-2.01,2.34-6.99,4.69-13.98,7.03-20.97,0,0-.03.04-.03.04.28-.36.56-.72.85-1.08.28-.14.36-.35.25-.64.98-1.78,1.96-3.56,2.94-5.34.97,1.55,1.94,3.11,2.52,4.05,1.74-.7,3.11-1.26,4.48-1.82-1.09,2.57-2.19,5.14-3.28,7.72-.65-.86-1.3-1.72-1.96-2.58-.37.32-.75.64-1.12.95l2.48,2.74c-.59,1.69-1.28,3.36-1.75,5.08-2.52,9.31-4.99,18.64-7.47,27.96-1,.29-1.99.59-2.99.88h0v-6.51c-2.11.67-3.4,1.08-4.68,1.49l-.47-2.99c.77-1.85,1.54-3.69,2.31-5.54.2-.48.4-.96.6-1.44Z"/>
  <path class="cls-10" d="m206.02,349.53c-.32-.58-.65-1.16-.97-1.74,3.32-.47,6.63-.93,9.95-1.4-.02-.57-.04-1.13-.06-1.7-2.64-.97-5.28-1.94-7.93-2.91.02-.37.05-.75.07-1.12,3.99-.47,7.98-.92,11.96-1.43,3-.39,5.98-.86,8.97-1.3-1.84,5.46-1.43,5.93,4.11,5,1.28-.21,2.62-.1,3.93-.14-7.82,1.93-15.63,3.9-23.47,5.76-2.15.51-4.38.66-6.57.97Z"/>
  <path class="cls-10" d="m236.03,342.82c.74-2.93,2.27-2.43,4.03-.92-1.34.31-2.69.62-4.03.92Z"/>
  <path class="cls-2" d="m280.15,252.92c1.02,2.61,2.04,5.22,3.05,7.83-1.92,9.68-9.34,14.2-16.78,9.8-3.84-2.28-7.31-2.12-11.1-.64-3.12.32-6.24.64-9.36.96-4.68.62-9.35,1.24-14.02,1.86-3.02.07-6.03.14-9.05.2-7.98-.72-15.96-1.57-23.96-2.08-3.38-.22-7.43-1.23-9.17,4.05,1.22.96,2.38,2.12,3.76,2.9,6.03,3.43,12.1,6.78,18.19,10.08,1.39.75,2.94,1.19,4.41,1.78,2.25,1,4.5,2,6.75,3.01,2.39,1.11,4.77,2.21,7.16,3.32,1.01.93,2.01,1.86,2.75,2.55-1.09,2.11-1.9,3.66-2.71,5.22,0,0-.22.22-.22.22-.96-.35-1.92-.71-2.87-1.06-.75-.27-1.49-.55-2.24-.82l.09.07c-1-.43-2-.87-3-1.3-9.64-4.64-19.28-9.29-28.92-13.93,3.23.6,6.47,1.21,10.53,1.96-2.81-5.56-12.65-10.4-17.23-9.65-4.32.71-8.69,1.13-13.04,1.68l-.22-.25c1.42-1.08,2.79-2.21,4.25-3.23,3.98-2.78,3.94-4.3-.22-6.52.02-.7.03-1.41.05-2.11,3.95.8,8.8,3.44,11.67,2.04,6.89-3.37,13.42-2.04,20.15-1.22,6.56.8,13.23,3.02,17.84-2.32-5.85-1.11-12.24-2.33-18.63-3.55,3.42.35,6.87,1.12,10.26.96,9.52-.45,19.13-.64,28.5-2.19,6.45-1.07,14.7-.25,17.37-9.19.19-.64,1.5-.88,1.88-1.54,1.09-1.91,2.2-3.86,2.88-5.93.59-1.82.69-3.82.86-5.75.52-5.94.96-11.89,1.5-18.68-6.55,5.21-12.16,9.57-17.62,14.11-.9.75-1.53,2.3-1.57,3.51-.22,6.21-4.1,11.33-9.86,10.57-6.46-.84-10.97,1.7-15.98,4.89-4.42,2.81-9.61,4.38-14.41,6.63-1.38.65-2.55,1.73-3.81,2.61-2.91-.6-1.71-1.72-.32-2.79,1.48-1.15,3-2.26,4.5-3.38-.13-.53-.27-1.07-.4-1.6-1.97,0-3.97-.21-5.91.05-3.09.41-6.11,1.31-9.2,1.68-2.46.3-5.26.53-5.16-3.36,3.97,4.04,7.65,1.56,12.3-.2-5.03-4.68-9.37-8.72-14.76-13.74v11.35c-1.18-.26-2.4-.87-3.52-.71-1.92.28-3.77,1.04-5.65,1.61,0-3.29,0-6.58,0-9.98-4.67,4.34-8.85,8.23-13.03,12.12-3.22.67-6.45,1.33-10.68,2.2,2.69,2.56,4.26,4.07,5.84,5.57-9.85-2.92-19.1-7.02-27.04-13.7,1.7.33,3.93.1,5,1.11,3.95,3.71,7.86,3.45,12.08.82.71-.02,1.43-.04,2.14-.06,3.25.73,5.5-.65,7.67-3.05,2.36-2.6,5.24-4.73,7.9-7.06,0,.49-.01.98.02,1.47.09,1.35.2,2.69.3,4.04,1.22-.52,2.57-.86,3.64-1.6,1.88-1.29,3.61-2.79,5.35-4.26,1.01-.85,2.12-1.71,2.75-2.81.22-.39-.9-2.2-1.37-2.19-1.49.05-3.05.44-4.41,1.09-1.82.86-3.47,2.08-5.19,3.14,2.89-2.96,5.78-5.91,8.68-8.87,3.21-.62,6.41-1.25,9.62-1.87.31.27.62.55.93.82l1.13,1.11-.09-.09,1.1,1.12c.96.95,1.92,1.9,2.88,2.85.39.38.77.76,1.16,1.13.28.28.56.57.85.85.35.39.71.78,1.06,1.18.98.95,1.95,1.9,2.93,2.85.37.36.74.73,1.11,1.09l-.08-.08c.36.36.71.72,1.07,1.08l-.08-.08,1.08,1.07-.08-.08c.37.35.74.7,1.11,1.05l-.09-.08c.36.37.72.73,1.08,1.1,0,0-.08-.09-.08-.09.34.38.68.76,1.01,1.14l-.06-.07c.37.36.74.72,1.11,1.07.31.24.62.49.92.73.75.65,1.51,1.3,2.26,1.95l-.26.29.22-.32c2.32,3.17,3.25,3.06,6.53-.81l-.09.07c.4-.24.81-.49,1.21-.73l.34-.24s.41,0,.41,0c.65-.44,1.29-.88,1.94-1.32,0,0-.05.06-.05.06.44-.23.87-.47,1.31-.7l-.03.02c.61-.44,1.22-.87,1.83-1.31l-.06.05c.62-.39,1.25-.79,1.87-1.18l.36.06s-.37-.02-.37-.02c.43-.29.87-.59,1.3-.88.73-1.72,1.89-3.38,2.11-5.16.65-5.19,3.36-9.4,8.21-10.02,7.18-.92,9.94-5.33,11.94-11.16,1.61-4.08,4.73-8.17-.13-12.18-.41-6.29-1.26-7.14-8.08-8.09l.03.03c-.7-.66-1.4-1.32-2.09-1.98,0,0,.07.06.07.06-.37-.36-.74-.71-1.11-1.07l.09.09c-.35-.37-.71-.74-1.06-1.11,0,0,.08.08.08.08-.37-.35-.73-.71-1.1-1.06,0,0,.09.09.09.09-.35-.37-.71-.75-1.06-1.12-.3-.3-.6-.6-.9-.9-.35-.37-.7-.74-1.05-1.11l.05.05c-.35-.35-.7-.7-1.05-1.05l.05.05-1.05-1.05.04.04c-.05-1.44-.11-2.88-.16-4.32l-.06.07c.38-.36.75-.72,1.13-1.08l-.1.1c.39-.34.78-.68,1.16-1.02,0,0-.09.09-.09.09.36-.37.72-.74,1.08-1.1,0,0-.09.1-.09.1.35-.38.7-.76,1.05-1.15,0,0-.1.09-.1.09l1.23-.82c.34-.34.69-.68,1.03-1.02.33-.32.65-.65.98-.97.33-.33.67-.67,1-1,3.39-.73,6.72-1.37,6.04,4.02l.02-.02-1.03,1.05.05-.05c-.35.35-.7.7-1.04,1.06l.05-.05c-.35.35-.7.71-1.05,1.06l.06-.06c-.36.36-.71.72-1.07,1.07.22,1.05.1,2.4.72,3.09,3.99,4.45,8.15,8.76,12.25,13.12.4-.29.81-.57,1.21-.86-.42-1.48-.84-2.95-1.27-4.43.36-.03.73-.06,1.09-.09.65.96,1.7,1.85,1.86,2.89.3,1.91-.09,3.93.17,5.86.14,1.1.99,2.1,1.52,3.14.85-.92,1.88-1.73,2.5-2.79,1.13-1.92,2.01-3.98,2.99-5.98-1.67,7.27-3.35,14.53-5.13,22.27,2.62-1.82,5.23-3.63,7.83-5.44.37-.36.74-.71,1.11-1.07l-.07.07c.36-.35.72-.7,1.08-1.05l-.06.06c.37-.34.73-.68,1.1-1.02,2.01-1.97,4.02-3.93,6.02-5.9.48-.5.96-1,1.44-1.5,0,0,.09-.08.09-.08.22-.48.43-.96.65-1.43-.24-.2-.36-.46-.36-.78,1.4-1.07,2.8-2.13,4.2-3.2,1.08-.38,2.4-.48,3.21-1.18,3.74-3.24,5.5-1.19,6.84,2.34-.27.31-.53.63-.8.94-1.1,1.62-2.19,3.23-3.29,4.85l-.02.03c-.66.65-1.33,1.29-1.99,1.94-.63.38-1.26.76-1.89,1.15-.32.31-.65.61-.97.92-.06.19-.05.38.03.56-.64.52-1.28,1.04-1.91,1.56-.37.38-.74.76-1.11,1.13-.57,4.31-1.22,8.6-1.7,12.92-.85,7.58-1.8,15.17-2.21,22.78-.09,1.68,1.94,3.48,2.99,5.22Z"/>
  <path class="cls-2" d="m283.31,110.23c-.16.52-.32,1.03-.48,1.55-.62,1.65-1.24,3.3-1.86,4.95-.04.54-.08,1.09-.12,1.63-.48.19-.96.38-1.44.57-.41.39-.82.78-1.23,1.17,0,0,.1-.09.1-.09-.41.3-.82.59-1.23.89.32,1.41.82,2.8.92,4.22.72,9.93,1.08,19.9,2.23,29.78.28,2.42,3.08,4.56,4.72,6.82,1.72,1.72,3.44,3.45,5.17,5.17,1,1.53,2,3.07,3,4.6-.11,3.85-1.92,5.75-5.9,5.13-.68-.67-1.35-1.34-2.03-2.01-1.37-1.28-2.74-2.56-4.11-3.84-.95-.4-1.9-.8-2.86-1.2-.09-.86-.17-1.71-.26-2.57-.41-.37-.81-.74-1.22-1.11-4.54-3.82-9.01-7.73-13.68-11.39-.95-.75-2.63-.59-3.97-.85.43.65.87,1.3,1.3,1.95l-.09-.08c.02,2.26-1.55,5.09,2.18,6h-.12c.58,2.41,1.16,4.83,1.74,7.25l-.03-.04c-.01,1.35-.02,2.71-.03,4.06-1.99.67-3.99,1.34-5.98,2.01.68-7.92-4.83-4.64-8.5-3.97.46-2.88.81-5.06,1.16-7.24,0,0,.03,0,.03,0,.36-.38.71-.77,1.07-1.15l-.09.06c1.79,1.05,3.57,2.1,6.69,3.93-.24-2.98-.39-4.83-.53-6.69-3.3,1.65-3.73-2.47-5.95-2.97-.59-.75-1.19-1.49-1.78-2.24-.44-.93-.89-1.85-1.33-2.78-.24-.37-.47-.75-.71-1.12.09-.34,0-.63-.26-.87-.24-.4-.48-.79-.72-1.19-.95-1.29-1.9-2.59-2.86-3.88-1.73-.28-3.46-.56-5.2-.84-1.71-1.01-3.42-2.03-5.13-3.04-1.51-3.73-3.02-7.45-4.53-11.18-3.69-2.32-7.39-4.64-11.08-6.95-.41-.24-.83-.48-1.24-.72-.21-.27-.47-.36-.8-.27-2.11-.42-4.21-.84-6.32-1.26-1.24,1.04-2.55,2.03-3.72,3.14-5.69,5.39-11.34,10.82-17.01,16.24-2.8-.28-5.61-.55-8.41-.83l.08.07c-.36-.36-.72-.73-1.08-1.09l.09.09c-.36-.37-.72-.73-1.07-1.1l.06.07c-1.06-.95-2.12-1.9-3.18-2.85l.02-.02-.89-1.28c-.96-1.28-1.91-2.56-2.87-3.84,1.76-1.47,3.52-2.93,5.28-4.4,1.12.8,2.23,1.6,3.62,2.59v-8.16c4.44-1.39,8.89-2.78,13.33-4.17-3.01,3.31-7.36,6.09-4.06,12.61,4.05-3.73,7.91-7.29,12.82-11.82-3.79-.32-6.29-.54-8.79-.75,2.36-3.08,6.77-2.73,10.5.84,3.56,3.4,10.25,2.85,12.4-1.01.92.27,2.32.26,2.68.86,2.14,3.6,5.22,3.62,8.67,2.67v-.03c.62.44,1.23.88,1.85,1.33l-.1-.08c.63.42,1.25.84,1.88,1.26h0c.4.3.8.6,1.2.9,0,0-.13-.1-.13-.1l1.54,1.08c.47.05.93.1,1.4.16,3.03-.04,6.07-.07,9.1-.11l-.08-.05c.67.37,1.34.73,2.01,1.1,0,0-.02-.02-.02-.02,1.02,3.54,1.99,7.1,3.12,10.6.2.61,1.12.99,1.71,1.47,6.34,4.74,12.68,9.48,19.61,14.66-.83-9.52-.72-18.73-2.77-27.44-1.06-4.49-5.97-8.08-9.17-12.05-.16-.19-.63-.13-.96-.18-10.5-1.43-21-2.85-31.5-4.27.98-.41,1.96-.83,3.07-1.29-1.33-.41-2.53-.78-3.73-1.14.46.27.92.54,1.38.8,1.4-2.05,2.8-4.09,4.2-6.14-.03-2.59-.05-5.19-.08-7.78-.4-1.36-.8-2.73-1.2-4.09-.33-.97-.66-1.95-.99-2.92,0,0,.32-.24.32-.24,4.51-2.32,7.51-1.62,8.14,4.01.04.38.61.7.93,1.05,0,0-.05-.07-.05-.07.36,1.35.73,2.7,1.09,4.05.64,2.29,1.29,4.59,1.93,6.88,1.33.37,2.66.75,3.99,1.12l-.04-.03c2.61,3.88,5.8,2.17,8.95.94l-.08.06c.34.02.68.05,1.03.07.36.09.71.19,1.07.28,3.67,3.05,7.11,2.49,10.68-1.74v.06c3.13.11,6.26.23,9.4.34,0,0-.05-.02-.05-.02l1.35.61s-.03.33-.03.33c0,0,.05-.33.05-.33.54.49,1.07.98,1.61,1.46,0,0,0,0,0,0,.47.57.94,1.15,1.4,1.72,0,0-.12.32-.12.32,0,0,.08-.33.08-.33.51,1.44,1.02,2.89,1.53,4.33.14.47.28.95.42,1.42Z"/>
  <path class="cls-2" d="m213.06,81.56c-2.25,1.39-4.49,2.78-6.74,4.17-5.41-4.97-10.83-9.95-16.25-14.93-.35,0-.7-.01-1.06-.02-.33,6.33-.67,12.67-1,19-1.32,0-2.64-.01-3.96-.02-.34-5.76-.59-11.52-1.11-17.26-.08-.93-1.37-1.75-2.1-2.61-1.23.98-2.46,1.95-3.69,2.93-.69.67-1.38,1.34-2.06,2.01,0,0,.02-.02.02-.02-.44.49-.87.97-1.31,1.46,0,0-.38.29-.38.29-.23.21-.45.42-.68.63,0,0-.19.23-.19.23-.5.45-1,.9-1.5,1.35h0c-.68.65-1.35,1.3-2.03,1.95,0,0-.03.02-.03.02-.51.5-1.01,1-1.52,1.5,0,0-.45-.18-.45-.18l.46.16-1.1.95.07-.07c-.27.37-.54.74-.81,1.12,0,0-.1.16-.1.16-1.24-.15-2.47-.3-3.71-.44-.58-.1-1.16-.2-1.75-.3-.18-1.43-.36-2.86-.53-4.3,0,0,.07-.05.07-.05.32-.31.65-.62.97-.93,0,0,.27.25.27.25l-.24-.29c.28-.32.55-.64.83-.97,0,0,.17-.17.17-.17.3-.28.6-.56.9-.84,0,0,.09-.09.09-.09.27-.3.53-.6.8-.89l.22-.22c.26-.26.52-.52.78-.78l.23-.23c.23-.24.45-.49.68-.73.05-.19.17-.31.36-.36.27-.23.53-.46.8-.69,0,0,.16-.14.16-.14.3-.28.6-.57.89-.85,0,0,.12-.11.12-.11.39-.26.78-.53,1.16-.79l-.07.07,1.12-1.03-.09.08c.44-.38.87-.75,1.31-1.13.3-.61.61-1.23.91-1.84.93-.53,1.86-1.05,2.79-1.58-.3-.47-.59-.94-.89-1.4h-29.68c-.03-.31-.12-.6-.29-.86.01-2,.03-3.99.04-5.99l.32.09c.28-.25.57-.51.85-.76,2.31-.12,4.62-.24,6.93-.36h22.32c-6.2-6.35-12.05-12.35-18.03-18.48,1.8-2.01,3.32-3.71,4.84-5.42l.44.02.43-.09c6.31,5.98,12.62,11.96,18.93,17.94.69-1.41,1.29-2.86,2.08-4.2.73-1.25,1.66-2.39,2.5-3.58.82,1.21,1.76,2.36,2.42,3.65.49.97.62,2.12.91,3.19.05.37.1.74.16,1.11.28.11.56.23.84.34.3-.17.6-.35.9-.52.37-.38.74-.77,1.11-1.15,0,0-.11.12-.11.12.37-.41.75-.82,1.12-1.23.27-.25.53-.5.8-.75.39-.39.78-.77,1.17-1.16,0,0-.12.11-.12.11l1.12-1.09s-.08.07-.08.07c3.98.75,5.66-.94,5.16-4.91l-.03.03c.5-.5,1-.99,1.5-1.49l.1-.06c.29-.29.58-.58.87-.88,0,0,.14-.16.14-.16,1.03-.17,2.06-.4,3.11-.48,1.16-.09,2.33-.04,3.5-.05-.38,1.21-.62,2.49-1.16,3.62-.8,1.66-1.83,3.2-2.76,4.8,0,0,.04-.04.04-.04-3.9-.49-4.58,2.26-5.15,5.12-.3.24-.6.48-.91.72-.36.39-.72.78-1.08,1.17,0,0,.11-.11.11-.11-.37.37-.73.75-1.1,1.12,0,0,.11-.11.11-.11-.37.37-.74.74-1.11,1.11,0,0,.12-.12.12-.12-.37.37-.74.75-1.11,1.12,1.6.34,3.2.67,4.81,1.01.37,0,.74,0,1.11-.01,7.62.01,15.25.02,22.87.03.3.26.61.52.91.77.02,2.29.04,4.59.06,6.88h-30.69c1.81,1.31,2.31,1.68,2.82,2.04,5,5.27,10,10.54,15,15.8Z"/>
  <path class="cls-4" d="m249,32.79c-.71-.2-1.43-.4-2.14-.61-.28-.15-.57-.29-.85-.44-.7-.23-1.4-.45-2.1-.68-6.05-5.26-18.74-8.46-23.25-5.87.44,1.64.87,3.27,1.37,5.18-4.47-1.32-8.26-2.44-12.06-3.56h.02c.28-4.82-3.15-4-6.06-3.97l.04.03c-1.04-.65-2.08-1.3-3.12-1.95l.06.05c-.39-.14-.78-.29-1.17-.43-.21.04-.38-.03-.51-.2-1-.66-2-1.32-3-1.98-.53.94-1.06,1.89-1.6,2.83l-.16.16c-.8.48-1.61.95-2.41,1.43h.01c-.64.42-1.29.84-1.93,1.26,0,.24-.05.46-.15.68-.35.09-.69.19-1.04.28-.31-.08-.61-.17-.91-.27-.79-.54-1.56-1.49-2.39-1.54-3.97-.25-7.73-.79-10.18-4.46-.8.58-1.61,1.17-2.41,1.75-.99.1-1.97.19-2.96.29-.62.43-1.24.85-1.86,1.28l.07-.06c-1.11.56-2.22,1.12-3.33,1.68-.64.35-1.28.7-1.92,1.06-1.21.62-4.52-1.28-3.04,2.55l-.12.12c-1.44-.18-2.91-.65-4.32-.49-7.06.77-10.14-2.73-8.49-9.85.67-.05,1.34-.11,2.01-.16.63-.11,1.26-.21,1.89-.32,0,0-.06.06-.06.06,2.76.04,5.59.5,8.25,0,2.7-.51,5.21-1.97,7.81-3.02,0,0-.05.03-.05.03,3.42-1.23,6.83-2.45,10.77-3.87.08,1.01.11,2.88.4,4.71.7,4.41,4.01,5.6,7.68,5.12,2.46-.32,6.27-.29,5.29-4.85,0-1.33,0-2.67,0-4,2.32-3.21,4.78.41,7.15-.14,0,0-.05-.04-.05-.04,1.99,1.03,3.99,2.07,5.98,3.1,0,0-.06-.04-.06-.04,3.49,3.3,7.5,3.87,11.92,2.29.67.07,1.34.14,2.02.21.49,1.54.97,3.09,1.61,5.1,7.54.76,16.02,1.62,24.5,2.48,2,.57,3.99,1.14,5.99,1.71,2.03,5.47,6.21,6.12,11.18,5.01,0,0,.03,0,.03,0,1.27,1.67,2.54,3.34,4.14,5.43-2.99.41-5.3.72-7.6,1.04,0,0,.03.02.03.02-1.39-.69-2.78-1.37-4.16-2.06-.61-.28-1.21-.55-1.82-.83-.97-.42-1.94-.84-2.9-1.26Z"/>
  <path class="cls-7" d="m200.73,107.58h-.32s.01-.32.01-.31c.53.2,1.05.38,1.58.57,1.93,5.88,7.3,7.81,11.04,3.97.71-.05,1.43-.1,2.14-.16,0,0-.06-.04-.06-.04-.03.38-.06.77-.08,1.15.66.66,1.32,1.33,1.99,1.99h.01c-2.16,3.87-8.84,4.42-12.4,1.02-3.73-3.56-8.14-3.91-10.5-.84,0,0,.03-.04.03-.04-4.44,1.39-8.89,2.78-13.33,4.17,0,0,.02,0,.02,0l-1.14-1.05s.05.08.05.08c-.28-4.16-2.92-5.34-6.59-5.32-2.19,0-4.46-.2-4.08,3.12-.01.28.01.56.07.84-1.7,1.02-3.41,2.03-5.11,3.05-2.49-1.01-5.09-1.8-7.42-3.09-1.68-.93-2.99-2.53-4.46-3.83.96-.02,1.91-.05,2.87-.07,2.85,1.88,4.78,1.02,6.01-1.99,6.25-.25,11.64-2.43,16.29-6.71,1.73-1.59,4.05-2.54,5.67-3.52.34-3.53.68-7.16,1.03-10.79,1.32,0,2.64.01,3.96.02-.27,6.21-.16,12.25,6.99,15,.37.02.74.04,1.11.05-.02.26-.03.53-.04.79,1.13.43,2.26.86,3.39,1.29.4.2.79.4,1.18.59-.28.06-.56.13-.83.2.31-.04.62-.09.92-.13Z"/>
  <path class="cls-4" d="m309.79,191.78c.19.28.26.58.22.91-1.02,5.79-1.21,5.86-8.04,3.09-1.35.37-2.7.74-4.04,1.11-.68-.13-1.36-.26-2.04-.4.07-.25.09-.49.06-.75.65-1.8,1.3-3.6,2.06-5.68-1.01-.57-2.66-1.29-4.07-2.34-1.09-.81-2.54-2-2.6-3.09-.06-1.13,1.23-2.46,2.17-3.47,1.28-1.37,2.64-2.8,4.25-3.69,1.57-.87,3.53-1.56,5.24-1.41.76.07,1.67,2.34,1.89,3.71.39,2.42.31,4.92.46,8.32,1.58-3.54,2.66-5.95,3.73-8.36,3.37,3.49,1.72,7.28.68,11.04-.39.17-.78.34-1.16.51.39.16.79.32,1.18.49Z"/>
  <path class="cls-10" d="m309.09,179.74c-1.08,2.41-2.15,4.82-3.73,8.36-.16-3.4-.07-5.9-.46-8.32-.22-1.37-1.13-3.64-1.89-3.71-1.71-.15-3.67.54-5.24,1.41-1.61.89-2.97,2.32-4.25,3.69-.94,1.01-2.23,2.35-2.17,3.47.06,1.09,1.51,2.27,2.6,3.09,1.41,1.05,3.06,1.78,4.07,2.34-.76,2.09-1.41,3.89-2.06,5.68-2.24-2.25-4.48-4.49-6.71-6.74.2-3.07.39-6.13.59-9.19,1.74-2,3.49-4.01,5.23-6.01,6.69,1.23,10.61-2.04,13.25-7.84,1.19-2.61,2.97-4.96,4.48-7.42.82,2.91-.83,7.93,5.34,6.28-2.02,3.65-4.03,7.31-6.05,10.96-.99,1.31-1.98,2.63-2.97,3.94Z"/>
  <path class="cls-8" d="m227.08,106.51c-.32.08-.63.22-.95.24q-12.85.59-15.38-11.68c2.4-1.73,4.81-3.45,7.21-5.18,1.53,8.71,1.67,8.84,10.09,8.88,1.32,0,2.64-.02,3.96-.03-1.4,2.05-2.8,4.09-4.2,6.14-.46-.27-.92-.54-1.38-.8,1.2.37,2.4.74,3.73,1.14-1.11.47-2.09.88-3.07,1.29Z"/>
  <path class="cls-9" d="m190.04,335.49c1,.83,2.01,1.67,3.01,2.5.93,3.37,4.89,5.68,6.59,3.43,3.25-4.31,5.04-1.42,7.37.38,2.64.97,5.28,1.94,7.93,2.91.02.57.04,1.13.06,1.7-3.32.47-6.64.93-9.95,1.4-3.93.8-7.85,1.59-12.47,2.53-.15-1-.14-2.39-.57-3.63-.72-2.05-1.8-3.97-2.57-6-.59-1.57-.93-3.24-1.39-4.86.37-.06.73-.12,1.1-.18l.47.04.42-.2Z"/>
  <path class="cls-4" d="m234.56,49.93c-.21-.32-.41-.64-.62-.96-.47-.48-.95-.96-1.42-1.44,0,0-.24-.3-.24-.3-1.22-1.44-2.45-2.87-3.67-4.31-.9-.95-1.8-1.9-2.7-2.85.4-1.67.81-3.33,1.21-5,1.67.77,3.34,1.55,5.02,2.31,1.01.45,2.04.85,3.06,1.27,0,0-.07-.07-.07-.07.34.38.69.75,1.03,1.13,0,0-.05-.06-.05-.06.46.45.93.9,1.39,1.34,0,0,.02.02.02.02,1.91,3.5,3.87,6.97,5.69,10.52.87,1.7,1.44,3.55,2.52,6.25-3.41-1.18-5.48-1.9-7.56-2.62,0,0,0,0,0,0-.41-.78-.82-1.56-1.23-2.35-.3-.37-.6-.75-.91-1.12-.49-.59-.98-1.17-1.48-1.76Z"/>
  <path class="cls-1" d="m299.85,302.93c.26-4.96,2.1-7.64,5.5-6.88,2.1.47,4.88,3.18,5.17,5.2.42,2.93-1.68,5.74-5.44,5.46-3.07-.23-5.39-1.57-5.22-3.78Z"/>
  <path class="cls-1" d="m311.72,65.74c3.35-.35,5.03,1.83,5.08,4.96.05,3.11-1.49,5.12-5.17,5.18-3.88.06-5.45-1.93-5.6-5.33-.16-3.61,2.09-4.9,5.68-4.81Z"/>
  <path class="cls-1" d="m362.94,185.79c-1.46,1.87-2.67,4.13-4.53,5.4-.66.45-2.95-1.48-4.5-2.33,0-2.08,0-4.15-.01-6.22.32-.29.65-.58.97-.88,2.69,1.34,5.38,2.68,8.07,4.02Z"/>
  <path class="cls-8" d="m189.44,71.8c-.05,7.56-.17,15.11-.07,22.67.02,1.17,1.09,2.33,1.68,3.5,1.32,2.28,2.64,4.56,3.96,6.83-7.15-2.76-7.26-8.79-6.99-15,.33-6.33.67-12.67,1-19,.14.34.28.67.43,1.01Z"/>
  <path class="cls-5" d="m237.05,79.87c.69,2.96,1.38,5.93,2.06,8.89-.32-.35-.89-.67-.93-1.05-.63-5.63-3.63-6.33-8.14-4.01,2.33-1.28,4.67-2.56,7-3.84Z"/>
  <path class="cls-5" d="m230.04,295.97c1.66.42,3.32.83,4.98,1.25-.14,3.32-.98,6.1-4.93,6.52.81-1.56,1.61-3.11,2.71-5.22-.74-.69-1.75-1.62-2.75-2.55Z"/>
  <path class="cls-5" d="m264.13,100.65c1.18-.11,2.36-.21,3.54-.32-3.57,4.23-7.01,4.79-10.68,1.74,2.38-.47,4.76-.95,7.14-1.42Z"/>
  <path class="cls-12" d="m362.94,185.79c-2.69-1.34-5.38-2.68-8.07-4.02,5.54-2.06,8.27-.7,8.07,4.02Z"/>
  <path class="cls-12" d="m353.89,182.64c0,2.07,0,4.15.01,6.22-2.97-2.07-3.01-4.14-.01-6.22Z"/>
  <path class="cls-4" d="m265.87,40.94c.83-1.03,1.66-2.05,2.48-3.08.47.55.95,1.11,1.42,1.66-1.32.46-2.64.92-3.95,1.38,0,0,.05.03.05.03Z"/>
  <path class="cls-5" d="m280.96,116.72c.62-1.65,1.24-3.3,1.86-4.95-.62,1.65-1.24,3.3-1.86,4.95Z"/>
  <path class="cls-10" d="m297.92,196.9c1.35-.37,2.7-.74,4.04-1.11,0,.61,0,1.22,0,1.82-1.35-.24-2.7-.48-4.05-.71Z"/>
  <path class="cls-10" d="m319.94,161.76c-.37.67-.75,1.34-1.12,2.01-.13-.81-.27-1.61-.4-2.42.51.14,1.02.27,1.52.41Z"/>
  <path class="cls-10" d="m312.71,158.61c0-.33.14-.6.39-.81.03.24.08.49.06.73,0,.03-.3.05-.45.08Z"/>
  <path class="cls-5" d="m254.9,101.72c.08-.33.15-.67.23-1,.27.36.53.71.8,1.07-.34-.02-.68-.05-1.03-.07Z"/>
  <path class="cls-11" d="m198.22,10.64c-2.38.55-4.83-3.07-7.16.14-.53-.62-1.02-1.73-1.59-1.77-2.89-.21-5.8-.14-8.71-.16.13,2.48-.6,5.55.6,7.29,1.91,2.76,5.09,2.38,7.75.12.62-.53,1.3-.99,1.95-1.48.98,4.56-2.83,4.53-5.29,4.85-3.67.48-6.98-.71-7.68-5.12-.29-1.83-.32-3.7-.4-4.71-3.94,1.42-7.36,2.64-10.77,3.87,1.96-2.13,6.49-1.4,6.43-5.79C175.69,2.49,180.02-.22,185.67.01c6.66.27,10.58,4.46,12.55,10.63Z"/>
  <path class="cls-11" d="m244.13,23.74c-8.48-.86-16.96-1.72-24.5-2.48-.63-2.01-1.12-3.55-1.61-5.1,7.63,1.88,15.27,3.71,22.88,5.68,1.16.3,2.15,1.25,3.22,1.9Z"/>
  <path class="cls-11" d="m261.3,30.45c-4.97,1.12-9.15.46-11.18-5.01,3.73,1.67,7.46,3.34,11.18,5.01Z"/>
  <path class="cls-11" d="m216.01,15.95c-4.42,1.58-8.43,1.01-11.92-2.29,3.97.76,7.95,1.53,11.92,2.29Z"/>
  <path class="cls-11" d="m204.15,13.7c-1.99-1.03-3.99-2.07-5.98-3.1,1.99,1.03,3.99,2.07,5.98,3.1Z"/>
  <path class="cls-11" d="m36.23,90.85c1.25-1.03,2.5-2.05,3.74-3.08,2.44-3.14,4.95-6.23,7.25-9.46.57-.81.94-2.25.63-3.12-3.51-9.94,2.92-18.23,15.52-16.54,1.6.21,3.65-.37,5-1.3,12.29-8.41,23.75-18.37,36.88-25.1,13.09-6.72,27.82-10.25,41.83-15.18-1.64,7.11,1.44,10.62,8.49,9.85,1.4-.15,2.88.31,4.32.49-1.61,1.19-3.22,2.37-4.83,3.56-.36.26-.71.52-1.07.78-1.23,1.01-2.46,2.02-3.69,3.03-1.43,1.58-2.86,3.17-4.3,4.75-9.07,7.56-15.02,17.48-20.72,27.02,10.7,5.1,21.27,10.13,31.83,15.16l2.98,1.92c.58.1,1.16.2,1.75.3.84.86,1.67,1.71,2.51,2.57,4.97,3.69,9.95,7.38,14.92,11.07-1.89,2.07-3.78,4.14-5.67,6.21-4.77-2.97-9.54-5.94-14.31-8.9-2.17-1.42-4.34-2.83-6.5-4.25-3.67-3.87-7.68-7.06-13.43-6.81l-6-3.98c-2.84-1.26-5.6-2.9-8.57-3.62-1.24-.3-3.97,1.08-4.27,2.18-2.11,7.7-3.75,15.53-5.55,23.32-.27.02-.52.08-.77.18-2.66-.02-5.33-.05-7.99-.07l-.04-.17c.11-.71.22-1.43.33-2.14.17-.78.34-1.55.52-2.33,1.79-8.06,3.57-16.11,5.4-24.35-10.4-3.73-21.69-4.57-33.06-3.89-3.66.22-7.22,1.2-8.39,6.4-1.13,5.02-5.51,7.93-11,7.47-3.29-.28-4.58,1.11-5.85,3.84-4.18,8.95-5.63,18.54-7.12,28.14-.28,1.59-.91,3.22-.76,4.77.49,5.08,1.27,10.14,1.93,15.2-1.99-.33-3.98-.66-5.98-.99,0-10.33,0-20.67,0-31.83-.96,1.49-1.39,2.15-1.81,2.8-.14-.57-.28-1.14-.5-2.05-2.7,4.73-5.15,9.03-7.6,13.32-1.37.56-2.75,1.11-4.48,1.82-.59-.95-1.56-2.5-2.52-4.05.3-1.02.6-2.04.9-3.06,1.42-2.59,2.83-5.18,4.25-7.76,0,0-.05.05-.05.05.25-.42.5-.84.76-1.26,0,0,.03-.07.03-.07.21-.29.43-.58.64-.87,1.48-3.33,2.97-6.65,4.45-9.98Zm40.69-30.95c13.29,1.22,26.67,2.45,39.2,3.61,9.19-11.97,18.53-24.13,28.66-37.32-26.52,5.27-47.89,18.48-67.86,33.71Zm-17.45,18.85c2.55-3.47,4.92-5.36,5.38-7.63.65-3.26-1.65-5.86-5.05-6.05-3.68-.21-5.53,2.87-5.24,5.85.21,2.23,2.56,4.26,4.91,7.83Z"/>
  <path class="cls-11" d="m166.97,13.64c-2.59,1.05-5.11,2.51-7.81,3.02-2.65.5-5.49.04-8.25,0,5.35-1.01,10.7-2.01,16.05-3.02Z"/>
  <path class="cls-11" d="m150.98,16.6c-.63.11-1.26.21-1.89.32.63-.11,1.26-.21,1.89-.32Z"/>
  <path class="cls-2" d="m136.11,297.64c3.66-1.92,7.32-3.84,10.98-5.76,2.44-.77,4.87-1.54,7.31-2.31,6.19-2.97,12.37-5.94,18.56-8.91,0,0,.22.25.22.25-1.21,2.22-2.43,4.45-4.08,7.48,3.81-.69,5.95-1.08,8.09-1.47-11.26,7.67-23.59,13.04-36.55,17.06-1.51-2.11-3.01-4.23-4.52-6.34Z"/>
  <path class="cls-9" d="m50.92,138.79c1.79,5.56,3.58,11.12,5.37,16.68,0,4.18-1.11,7.06-6.2,5.36,0,0,.01.03.01.03-.76-1.63-1.51-3.26-2.27-4.88,0,0,.07.07.07.07-.2-1.87,1.78-4.63-2.04-5.04,0,0,.04.03.04.03-.46-1.14-.93-2.29-1.39-3.43-.17-.15-.22-.33-.14-.55-.4-.98-.89-2.83-1.2-2.8-2.12.2-4.46.53-3.97,3.68-.32.29-.63.59-.95.88-1.59-.54-3.18-1.08-4.78-1.62.72-1.51,1.29-3.12,2.21-4.5.57-.87,1.86-1.24,2.49-2.09,1.12-1.5,1.99-3.19,2.97-4.8.03-.34.07-.69.1-1.03.31-.33.61-.65.92-.98,1.99.33,3.98.66,5.98.99.92,1.34,1.85,2.67,2.77,4.01Z"/>
  <path class="cls-4" d="m78.25,189.76c-2.7,1.01-5.34,2.31-8.12,2.94-3.26.74-5.51-.23-5.05-4.37.29-2.6.05-5.25.05-7.68,3.22-1.02,5.86-1.86,7.67-2.43,2.79,1.39,4.98,2.48,7.17,3.57.31,2.07.61,4.15.92,6.22-.88.58-1.76,1.16-2.64,1.74Z"/>
  <path class="cls-4" d="m16.15,180.82c-1.47-2.41-2.95-4.82-5.08-8.3,2.03-3.29-1.55-10.32,5.1-13.74,0,0,0,0,0,0,.64.83,1.58,2.48,1.89,2.37,4.01-1.42,5.37,1.45,6.96,4.02,0,0,0,.02,0,.02-1.9,1.62-3.81,3.23-6.02,5.11-.53-.96-1.08-1.97-2.22-4.05-1.44,6.79.82,10.89,6.01,13.91-.24.36-.48.72-.72,1.09-1.63.19-3.27.37-4.9.56,0,0,0,0,0,0-.34-.33-.68-.66-1.02-.99v.02Z"/>
  <path class="cls-1" d="m64.64,307.61c-1.47-2.19-4.13-4.41-4.06-6.54.06-1.81,3.37-4.99,5.06-4.88,1.91.13,4.76,3.09,5.06,5.14.27,1.85-2.35,4.13-3.69,6.22-.79.02-1.58.04-2.38.06Z"/>
  <path class="cls-5" d="m86.12,175.79c-1.96,1.35-3.93,2.7-5.89,4.04-1.7-2.01-3.4-4.02-5.1-6.02,1.38-2.03,2.76-4.07,4.14-6.1,1.96-2.36,3.93-4.71,5.89-7.07.65.04,1.31.09,1.96.13-2.18,3.06-4.58,5.99-6.42,9.24-.6,1.07.25,2.96.44,4.47,1.33-.42,2.86-.55,3.96-1.31,2.42-1.65,4.63-3.61,6.92-5.44.07.66.13,1.32.2,1.99-2.04,2.02-4.07,4.05-6.11,6.07Z"/>
  <path class="cls-1" d="m17.17,188.76c-3.67,4.2-5.52,4.22-8.02.09.32-2.04.65-4.09.97-6.13,0,0,0,0,0,0,2.36.02,4.71.03,7.07.05,0,0-.01,0-.01,0,0,2,0,4,0,5.99Z"/>
  <path class="cls-5" d="m138.09,271.74c-4.68-.31-9.37-.63-14.05-.94-2.97-.32-5.94-.63-8.92-.95-2.36-.63-4.72-1.26-7.08-1.89,1.02-.39,2.04-.78,3.06-1.17,1.37.33,2.73.74,4.12.98,7.62,1.34,15.25,2.65,22.87,3.97Z"/>
  <path class="cls-1" d="m184.03,342.82c.32-.02.63-.05.95-.08,1.24,1.87,2.48,3.75,3.73,5.62-2.06.82-4.12,1.63-6.19,2.44-.14.06-.32.02-.49.02,0,0,0-.02,0-.02-.33-.33-.66-.66-.99-1,0,0-.01-.01-.01-.01,1-2.33,2.01-4.65,3.01-6.98Z"/>
  <path class="cls-5" d="m80.9,188.01c.59,1.86,1.19,3.73,1.78,5.59-5.28-.05-5.59,3.07-4.51,7.09-1.33-1.36-2.65-2.73-3.98-4.09,1.01-1.14,2.19-2.18,2.99-3.45.61-.97.74-2.25,1.08-3.39.88-.58,1.76-1.16,2.64-1.74Z"/>
  <path class="cls-5" d="m180.87,335.43c.12-.89.25-1.79.37-2.68,7.48.08,6.85.39,6.85-6.31,0-1.22.56-2.43.86-3.65.14,4,.27,8,.41,12-.21.25-.28.54-.21.86-.37.06-.73.12-1.1.18-2.4-.13-4.79-.27-7.19-.4Z"/>
  <path class="cls-3" d="m182.03,350.82c.16,0,.34.03.49-.02,2.07-.81,4.12-1.63,6.19-2.44-1.24-1.87-2.48-3.75-3.73-5.62,3.26-2.23,4.93.72,5.47,2.59.49,1.7-.45,4.54-1.77,5.87-1.83,1.85-4.62,2.9-6.65-.38Z"/>
  <path class="cls-5" d="m89.08,252.84c1.3-.7,2.6-1.4,3.9-2.1-1.89,4.01-3.79,8.02-5.68,12.03-.56-.86-1.12-1.72-1.67-2.57,1.15-2.45,2.3-4.9,3.45-7.35Z"/>
  <path class="cls-12" d="m10.12,182.72c-.32,2.04-.65,4.09-.97,6.13-2.95-2.56-3.3-4.71.97-6.13Z"/>
  <path class="cls-3" d="m184.03,342.82c-1,2.33-2.01,4.65-3.01,6.98-1.57-3.44-2.51-6.6,3.01-6.98Z"/>
  <path class="cls-12" d="m17.19,182.77c-2.36-.02-4.71-.03-7.07-.05,2.01-.64,4.02-1.28,6.03-1.91,0,0,0-.02,0-.02.34.33.68.66,1.02.99,0,0,0,0,0,0,0,.33,0,.65.02.98Z"/>
  <path class="cls-12" d="m17.17,188.76c0-2,0-4,0-5.99,0,2,0,4,0,5.99Z"/>
  <path class="cls-3" d="m181.03,349.81c.33.33.66.66.99,1-.33-.33-.66-.66-.99-1Z"/>
  <path class="cls-11" d="m19.16,157.9c7.33-7.37,14.66-14.73,21.99-22.1-.98,1.61-1.85,3.3-2.97,4.8-.63.85-1.91,1.23-2.49,2.09-.92,1.38-1.49,2.99-2.21,4.5,1.59.54,3.18,1.08,4.78,1.62-4.41,5.45-8.83,10.9-13.24,16.35-1.6-2.56-2.96-5.44-6.96-4.02-.31.11-1.24-1.54-1.89-2.37,1-.29,1.99-.59,2.99-.88Z"/>
  <path class="cls-11" d="m28.98,123.75c-.2.37-.4.74-.59,1.11-.83-.91-1.66-1.83-2.48-2.74.37-.32.75-.64,1.12-.95.65.86,1.3,1.72,1.96,2.58Z"/>
  <path class="cls-7" d="m152.09,250.78c-4.22,2.63-8.12,2.89-12.08-.82-1.07-1-3.3-.77-5-1.11l.05.03c-1.52-.36-3.03-.99-4.55-1.05-6.68-.25-10.1-3.19-10.35-9.67-.14-3.68-2.19-4.37-5.16-4.29l.05.04-1.14-1.01.07.08c-.95-.73-1.9-1.46-2.86-2.19h-.02c-.38-.32-.75-.62-1.13-.93l.07.06c-.37-.34-.74-.69-1.11-1.03,0,0,.05.06.05.06-.18-1.88-.36-3.76-.53-5.6q11.22-1.98,14.83,5.28c3.23.38,6.48.95,9.76,1.11,3.09.15,3.97-1.28,2.06-3.95,0-1.33,0-2.67.01-4,.32-.66.64-1.33.97-1.99.7-9.32,1.4-18.63,2.1-27.95.32-.33.63-.66.94-.99.45-.85.9-1.71,1.34-2.56l.15-.12c.24-.27.49-.54.73-.81,0,0,.29-.33.29-.33,1.09-.84,2.17-1.67,3.26-2.51,0,0-.06.07-.06.07.41-.23.83-.45,1.24-.68,2.7-1.38,5.27-3.32,8.13-3.99,2.75-.65,3.16-1.85,2.73-4.12,2.87-12.42,9.2-21.94,21.84-26.25,1.16-.39,2.15-1.26,3.23-1.9,2.37-.34,4.75-.69,7.12-1.03,1.65.31,3.31.62,4.96.93.97.14,1.94.27,2.91.41,3.02.94,6.04,1.88,9.06,2.82,2.98,2.11,5.97,4.23,8.95,6.34,2.63,4.9,5.27,9.8,7.9,14.7l.55,1.87c-.04.69-.07,1.39-.11,2.08-.05,2.34-.1,4.67-.15,7.01.05.35.1.7.15,1.05-.06,1.31-.12,2.62-.19,3.92-.21.26-.28.55-.2.87-.35,1.04-.69,2.08-1.04,3.12-.97,1.99-1.94,3.99-2.91,5.98-.33.35-.65.7-.98,1.06,0,0,0,0,0,0-.29-.01-.57,0-.85.05-.37.66-.75,1.32-1.12,1.98h.01c-.32.35-.65.72-.97,1.09,0,0,.06-.06.06-.06-.35.36-.7.72-1.05,1.08l.07-.07c-.35.36-.71.71-1.06,1.07l.07-.07c-.37.34-.73.68-1.1,1.02,0,0,.04-.04.04-.04-.67.36-1.35.73-2.02,1.09,0,0,.08-.08.08-.08-.36.34-.73.68-1.09,1.02l.03-.02c-1.34.68-2.67,1.36-4.01,2.03,0,0,.03-.03.03-.03-.99-.02-2.05-.28-2.96-.02-11,3.23-21.54,3.8-30.8-4.67-.3-.28-1.61.53-2.44.84-1.99-2.01-3.98-4.03-5.97-6.04-.61-.74-1.22-1.48-1.84-2.22l-.04-.05c-.81-.6-1.62-1.2-2.43-1.8-.43.74-.87,1.49-1.3,2.23l-.25-.24.28.21c-2.82-.09-4.32,1.05-3.82,4.08-.09-.08-.18-.16-.27-.24.08.09.17.18.25.26-.82,1.56-1.64,3.12-2.46,4.67,0,.31-.05.6-.17.88-.28.75-.8,1.5-.8,2.26-.05,11.92-.06,23.84.03,35.76,0,.96.86,1.92,1.32,2.88.2.06.4.1.6.12-.04.31-.03.61.05.91,0,.7-.02,1.39-.03,2.09Zm30.9-85.09c-.66.35-1.32.69-1.98,1.04-1.32.69-2.64,1.37-3.96,2.06-6.56.15-7.22.94-6.12,7.21.34,1.95,1,3.93.9,5.86-.33,6.15,3.44,8.91,8.4,10.85.69.27,1.38.55,2.07.82l1.74.95c1,.37,2.01.73,3.01,1.1,2.67-.34,5.34-.69,8.01-1.03l3-.71c5.81-.91,5.19-6.38,7.1-10.05,3.27-3.54,1.98-10.55-2.52-13.74l.11.1c-1.55-1.48-3.1-2.96-4.65-4.44-4.12-3.67-8.47-4.32-13.13-1-.66.33-1.33.65-1.99.98Z"/>
  <path class="cls-7" d="m158.05,264.95c.29-.14.6-.21.93-.21.69-.27,1.37-.54,2.06-.81.34-.46.68-.92,1.02-1.39-1.58-1.5-3.15-3.01-5.84-5.57,4.24-.87,7.46-1.54,10.68-2.2.17.26.25.54.23.85,2.25.7,4.5,1.9,6.75,1.9,1.31,0,2.62-1.96,3.92-3.03l-.06.08c.37-.36.74-.71,1.11-1.07l-.08.09c.4-.32.8-.64,1.2-.97,0,0-.04.03-.04.03,1.88-.56,3.73-1.32,5.65-1.61,1.11-.16,2.34.45,3.52.71v-.02c.48.52.97,1.03,1.47,1.55l-.42.08.43-.04c.31.34.61.68.92,1.02,0,0,.07,0,.07,0-.1,3.89,2.7,3.66,5.16,3.36,3.09-.37,6.11-1.27,9.2-1.68,1.94-.26,3.94-.05,5.91-.05.13.53.27,1.07.4,1.6-1.5,1.13-3.02,2.23-4.5,3.38-1.38,1.08-2.58,2.19.32,2.79,0,0,0,0,0,0,6.39,1.22,12.78,2.44,18.63,3.55-4.61,5.33-11.28,3.12-17.84,2.32-6.72-.82-13.26-2.16-20.15,1.22-2.87,1.41-7.72-1.24-11.67-2.04-3.98,0-7.95,0-11.93,0-8.45-.53-16.9-1.06-25.35-1.59,0-.48.01-.96.02-1.43,2.05,0,4.1.09,6.15-.02,4.05-.21,8.09-.53,12.14-.81Z"/>
  <path class="cls-7" d="m177.18,286.92c-2.14.39-4.28.78-8.09,1.47,1.65-3.03,2.87-5.26,4.08-7.48,4.35-.55,8.72-.98,13.04-1.68,4.58-.75,14.41,4.09,17.23,9.65-4.06-.76-7.29-1.36-10.53-1.96,0,0,.03.02.03.02-.64-.36-1.29-.71-1.93-1.07-.61,0-1.22-.02-1.82-.03-.1.64-.2,1.29-.31,1.93.13.3.19.61.19.94.79.98,1.59,1.97,2.38,2.95.22.29.45.58.67.87.39.37.78.73,1.17,1.1,0,0-.05-.08-.05-.08-.3,1.79-.35,5.02-.95,5.13-3.88.69-7.98,1.26-11.8.61-1.17-.2-1.68-4.33-2.49-6.66.33-.29.67-.58,1-.86.34-.34.69-.68,1.03-1.02,0,0-.01.01-.01.01.64-1.22,1.62-2.4,1.77-3.67.08-.64-1.36-2.04-2.11-2.04-.85,0-1.68,1.2-2.53,1.88,0,0,.02-.01.02-.01Z"/>
  <path class="cls-7" d="m258.01,174.79c1.99-.67,3.99-1.34,5.98-2.01.47-.14.95-.28,1.42-.42l-.04.05c.21.46.41.92.62,1.38,1.33,1.03,2.66,2.06,3.99,3.08.67.63,1.34,1.26,2.01,1.89.05.3.08.6.09.9-.04.7-.08,1.41-.11,2.11-1.31,2.46-2.11,5.5-4.07,7.25-2.6,2.32-3.29,4.73-2.85,7.85l.02-.02c-.98,2-1.87,4.06-2.99,5.98-.62,1.05-1.65,1.87-2.5,2.79-.53-1.04-1.38-2.05-1.52-3.14-.25-1.93.14-3.95-.17-5.86-.16-1.03-1.21-1.93-1.86-2.89.66-6.31,1.31-12.63,1.97-18.94Z"/>
  <path class="cls-3" d="m291.29,204.53c3.97,7.39,8.26,14.63,11.81,22.22,3.6,7.7,3.28,7.85-3.3,10.28-5.31-9.37-10.51-18.54-15.7-27.71-.08-.19-.08-.37-.03-.57.32-.31.65-.61.97-.92.63-.38,1.26-.76,1.89-1.15.66-.65,1.33-1.29,1.99-1.94,0,0,.02-.03.02-.02.78-.07,1.57-.13,2.35-.2Z"/>
  <path class="cls-1" d="m216.13,289.65c2.26-5.58,4.51-11.15,6.77-16.73,3.02-.07,6.04-.14,9.05-.2-3.02,6.65-6.05,13.29-9.07,19.94-2.25-1-4.5-2.01-6.75-3.01Z"/>
  <path class="cls-8" d="m258.01,174.79c-.66,6.31-1.31,12.63-1.97,18.94-.36.03-.73.06-1.09.09-4.28-6.09-5.72-9.33,0-17.65.65-.94.09-2.73.09-5.27-3.67,3.24-6.33,5.58-8.99,7.93.68-5.39-2.65-4.76-6.04-4.02,0,0-.26-.29-.26-.29,3.64-3.65,7.27-7.3,10.91-10.95-.35,2.18-.7,4.35-1.16,7.24,3.67-.67,9.18-3.95,8.5,3.97Z"/>
  <path class="cls-3" d="m278.78,200.98c-2.3-2.39-4.6-4.77-6.9-7.16,1.37-2.09,2.74-4.17,4.12-6.26,2.37,2.39,4.73,4.78,7.1,7.16-.04,1.02-.08,2.03-.12,3.05-1.4,1.07-2.8,2.13-4.2,3.2Z"/>
  <path class="cls-7" d="m170.89,239.49c1.72-1.06,3.37-2.28,5.19-3.14,1.36-.64,2.92-1.04,4.41-1.09.47-.01,1.59,1.8,1.37,2.19-.63,1.1-1.74,1.96-2.75,2.81-1.74,1.47-3.48,2.97-5.35,4.26-1.07.74-2.42,1.08-3.64,1.6-.1-1.35-.21-2.69-.3-4.04-.03-.49-.01-.98-.02-1.47,0,0,0,.02,0,.02.36-.37.72-.74,1.09-1.11v-.03Z"/>
  <path class="cls-5" d="m176.98,270.91c-9.96.66-19.93,1.33-29.89,1.99-.04-.35-.07-.69-.11-1.04,4.57-.36,9.16-.59,13.71-1.16,1.53-.19,2.95-1.24,4.41-1.9,3.98,0,7.95,0,11.93,0-.02.7-.03,1.41-.05,2.11Z"/>
  <path class="cls-5" d="m282.98,197.78c.04-1.02.08-2.03.12-3.05,3.86.05,5.54-2.24,6.13-5.71,2.24,2.25,4.48,4.49,6.71,6.74.03.25,0,.5-.06.75-.95.81-1.89,1.62-2.84,2.43-1.34-3.52-3.1-5.58-6.84-2.34-.81.7-2.13.8-3.21,1.18Z"/>
  <path class="cls-8" d="m250.02,204.91c-2.69-2.7-5.39-5.39-8.08-8.09,6.82.94,7.67,1.8,8.08,8.09Z"/>
  <path class="cls-5" d="m179.56,230.62c.55-1.3,1.09-2.6,1.64-3.9,1.96-.34,3.91-.69,5.87-1.03.59.06,1.19.12,1.78.17.11.96.22,1.92.33,2.88-3.21.62-6.41,1.25-9.62,1.87Z"/>
  <path class="cls-5" d="m211.37,250.37c2.18-.27,4.35-.54,6.53-.81-3.28,3.87-4.22,3.98-6.53.81Z"/>
  <path class="cls-5" d="m291.29,204.53c-.78.07-1.57.13-2.35.2,1.1-1.62,2.19-3.23,3.29-4.85-.31,1.55-.63,3.1-.94,4.66Z"/>
  <path class="cls-8" d="m231.97,186.86c-2.44-1.35-2.75-2.78-.16-4.32.05,1.44.11,2.88.16,4.32Z"/>
  <path class="cls-5" d="m209.15,248.44c.75.65,1.51,1.3,2.26,1.95-.75-.65-1.51-1.3-2.26-1.95Z"/>
  <path class="cls-5" d="m152.11,248.69c.7.68,1.41,1.36,2.12,2.03-.71.02-1.43.04-2.14.06,0-.7.02-1.39.03-2.09Z"/>
  <path class="cls-5" d="m224.84,302.15c-1-.43-2-.87-3-1.3,1,.43,2,.87,3,1.3Z"/>
  <path class="cls-5" d="m288.93,204.75c-.66.65-1.33,1.29-1.99,1.94.66-.65,1.33-1.29,1.99-1.94Z"/>
  <path class="cls-8" d="m241.97,196.86c-.31-.07-.62-.12-.93-.15-.39-.61-.78-1.22-1.16-1.83.7.66,1.4,1.32,2.09,1.99Z"/>
  <path class="cls-5" d="m222.94,246.72c.61-.44,1.22-.87,1.83-1.31-.61.44-1.22.87-1.83,1.31Z"/>
  <path class="cls-5" d="m219.77,248.67c.65-.44,1.3-.88,1.94-1.32-.65.44-1.3.88-1.94,1.32Z"/>
  <path class="cls-5" d="m224.72,245.46c.63-.39,1.25-.79,1.88-1.18-.63.39-1.25.79-1.88,1.18Z"/>
  <path class="cls-5" d="m276.96,204.77c.48-.5.96-1,1.44-1.5-.48.5-.96,1-1.44,1.5Z"/>
  <path class="cls-5" d="m278.5,203.19c.22-.48.43-.95.65-1.43-.22.48-.43.95-.65,1.43Z"/>
  <path class="cls-5" d="m226.99,302.9c-.75-.27-1.49-.55-2.24-.82.75.27,1.49.55,2.24.82Z"/>
  <path class="cls-8" d="m240.02,174.82c-.33.33-.67.67-1,1,0,0-.26-.28-.26-.28.33-.34.66-.67.99-1.01,0,0,.26.29.26.29Z"/>
  <path class="cls-8" d="m238.05,176.79c-.34.34-.69.68-1.03,1.02,0,0-.2-.24-.2-.24.32-.34.64-.68.96-1.02l.27.24Z"/>
  <path class="cls-8" d="m235.78,178.63c.06-.32.13-.64.2-.96.28-.03.56-.06.84-.1,0,0,.2.24.2.24-.41.27-.82.55-1.23.82Z"/>
  <path class="cls-8" d="m234.83,179.69c.35-.38.7-.76,1.04-1.14-.35.38-.7.76-1.04,1.14Z"/>
  <path class="cls-8" d="m246.08,178.82c-.34.35-.69.7-1.03,1.05.34-.35.69-.7,1.03-1.05Z"/>
  <path class="cls-8" d="m233.84,180.7c.36-.37.72-.74,1.08-1.1-.36.37-.72.74-1.08,1.1Z"/>
  <path class="cls-8" d="m245.09,179.82c-.35.35-.7.7-1.04,1.06.35-.35.7-.7,1.04-1.06Z"/>
  <path class="cls-8" d="m232.77,181.64c.39-.34.77-.68,1.16-1.02-.39.34-.77.68-1.16,1.02Z"/>
  <path class="cls-8" d="m244.1,180.82c-.35.35-.7.71-1.05,1.06.35-.35.7-.71,1.05-1.06Z"/>
  <path class="cls-8" d="m231.75,182.61c.38-.36.75-.72,1.13-1.08-.38.36-.75.72-1.13,1.08Z"/>
  <path class="cls-8" d="m243.11,181.82c-.36.36-.71.72-1.07,1.07.36-.36.71-.72,1.07-1.07Z"/>
  <path class="cls-8" d="m232.98,187.87c-.35-.35-.7-.7-1.05-1.05.35.35.7.7,1.05,1.05Z"/>
  <path class="cls-8" d="m234.97,189.93c-.35-.37-.7-.74-1.05-1.11.35.37.7.74,1.05,1.11Z"/>
  <path class="cls-8" d="m236.93,191.95c-.35-.37-.71-.75-1.06-1.12.35.37.71.75,1.06,1.12Z"/>
  <path class="cls-8" d="m237.95,192.93c-.37-.35-.73-.71-1.1-1.06.37.35.73.71,1.1,1.06Z"/>
  <path class="cls-8" d="m238.93,193.96c-.35-.37-.71-.74-1.06-1.11.35.37.71.74,1.06,1.11Z"/>
  <path class="cls-8" d="m239.94,194.93c-.37-.36-.74-.71-1.1-1.07.37.36.74.71,1.1,1.07Z"/>
  <path class="cls-5" d="m221.66,247.4c.44-.23.87-.47,1.31-.7-.44.23-.87.47-1.31.7Z"/>
  <path class="cls-5" d="m285.04,207.83c-.32.31-.65.61-.97.92.32-.31.65-.61.97-.92Z"/>
  <path class="cls-5" d="m269.84,211.69c.37-.34.73-.68,1.1-1.02-.37.34-.73.68-1.1,1.02Z"/>
  <path class="cls-5" d="m282.19,210.87c-.37.38-.74.76-1.11,1.13.37-.38.74-.76,1.11-1.13Z"/>
  <path class="cls-5" d="m268.83,212.68c.36-.35.72-.7,1.08-1.05-.36.35-.72.7-1.08,1.05Z"/>
  <path class="cls-5" d="m267.78,213.68c.37-.36.74-.71,1.11-1.07-.37.36-.74.71-1.11,1.07Z"/>
  <path class="cls-5" d="m190.11,229.58c.38.37.75.74,1.13,1.11-.38-.37-.75-.74-1.13-1.11Z"/>
  <path class="cls-5" d="m217.81,249.63c.4-.24.81-.49,1.21-.73-.4.24-.81.49-1.21.73Z"/>
  <path class="cls-5" d="m191.15,230.59c.37.37.73.75,1.1,1.12-.37-.37-.73-.75-1.1-1.12Z"/>
  <path class="cls-5" d="m195.12,234.56c.39.38.77.76,1.16,1.13-.39-.38-.77-.76-1.16-1.13Z"/>
  <path class="cls-5" d="m197.13,236.55c.35.39.71.78,1.06,1.18-.35-.39-.71-.78-1.06-1.18Z"/>
  <path class="cls-5" d="m201.12,240.58c.37.36.74.73,1.11,1.09-.37-.36-.74-.73-1.11-1.09Z"/>
  <path class="cls-5" d="m202.15,241.59c.36.36.71.72,1.07,1.08-.36-.36-.71-.72-1.07-1.08Z"/>
  <path class="cls-5" d="m203.15,242.59c.36.36.72.72,1.08,1.07-.36-.36-.72-.72-1.08-1.07Z"/>
  <path class="cls-5" d="m204.15,243.59c.37.35.74.7,1.11,1.05-.37-.35-.74-.7-1.11-1.05Z"/>
  <path class="cls-5" d="m226.59,244.32c.43-.29.87-.59,1.3-.88-.43.29-.87.59-1.3.88Z"/>
  <path class="cls-5" d="m205.17,244.56c.36.37.72.73,1.08,1.1-.36-.37-.72-.73-1.08-1.1Z"/>
  <path class="cls-5" d="m206.16,245.57c.34.38.68.76,1.01,1.14-.34-.38-.68-.76-1.01-1.14Z"/>
  <path class="cls-5" d="m207.11,246.63c.37.36.74.72,1.11,1.07-.37-.36-.74-.72-1.11-1.07Z"/>
  <path class="cls-8" d="m239.02,175.82c-.33.32-.65.65-.98.97,0,0-.27-.24-.27-.24.33-.34.66-.68.99-1.01,0,0,.26.28.26.28Z"/>
  <path class="cls-8" d="m233.98,188.87c-.35-.35-.7-.7-1.05-1.05.35.35.7.7,1.05,1.05Z"/>
  <path class="cls-3" d="m284.91,161.71c5.02-9.03,10.04-18.06,15.38-27.66,1.25.65,3.36,1.76,5.61,2.93-2.49,10.92-7.98,20.2-14.1,29.17-.3.43-1.13.5-1.72.73-1.72-1.72-3.44-3.45-5.17-5.17Z"/>
  <path class="cls-3" d="m271.81,176.4c2.12-2.28,4.24-4.56,6.36-6.84.95.4,1.91.8,2.86,1.2.97,1.35,1.94,2.7,2.92,4.05-2.98,3.06-5.96,6.11-8.93,9.17-.98-1.43-1.95-2.87-2.93-4.3,0-.3-.04-.6-.09-.9-.06-.79-.12-1.58-.18-2.37Z"/>
  <path class="cls-7" d="m171.95,129.04c-.33-.01-.63-.11-.9-.3-1.66-2.32-3.32-4.64-4.98-6.96,2.82.05,5.65.09,8.47.14.18.07.3.19.37.37.77.78,1.54,1.57,2.3,2.35,0,0,.01,0,.01,0-1.76,1.47-3.52,2.93-5.28,4.4Z"/>
  <path class="cls-8" d="m251.67,162.5c.07-1.91.14-3.82.2-5.73,2.23.51,2.65,4.63,5.95,2.97.15,1.85.3,3.71.53,6.69-3.12-1.83-4.9-2.88-6.69-3.93Z"/>
  <path class="cls-8" d="m217.35,112.45c3.68,1.95,7.37,3.9,11.05,5.85-3.45.95-6.52.93-8.67-2.67-.36-.6-1.76-.59-2.68-.86,0,0-.01-.01-.01-.01-.03-.64-.05-1.27-.08-1.91.13-.13.26-.27.39-.41Z"/>
  <path class="cls-8" d="m247.04,123.72c6.16,2.2,5.16,7.27,4.83,12.07-.59-.48-1.51-.86-1.71-1.47-1.14-3.5-2.1-7.06-3.12-10.6Z"/>
  <path class="cls-5" d="m295.04,173.82c-1.74,2-3.49,4.01-5.23,6.01-.94-1.02-1.88-2.04-2.81-3.06l.17-.15c3.99.62,5.79-1.28,5.9-5.13.65.78,1.31,1.56,1.96,2.34Z"/>
  <path class="cls-5" d="m181.16,140.91c-.12-.64-.25-1.28-.37-1.93,2.8.28,5.61.55,8.41.83-.1.65-.2,1.3-.31,1.95-2.58-.29-5.15-.57-7.73-.86Z"/>
  <path class="cls-5" d="m246.04,100.72c2.98.31,5.96.63,8.95.94-3.14,1.23-6.34,2.94-8.95-.94Z"/>
  <path class="cls-5" d="m267.67,100.38c3.22-2.34,6.32-1.23,9.4.34-3.13-.11-6.27-.23-9.4-.34Z"/>
  <path class="cls-8" d="m236.03,122.8c3.03-.04,6.07-.07,9.1-.11-3.03.04-6.07.07-9.1.11Z"/>
  <path class="cls-5" d="m283.95,174.8c-.97-1.35-1.95-2.7-2.92-4.05,1.37,1.28,2.74,2.56,4.11,3.84l-.16.17c-.35.01-.69.02-1.04.03Z"/>
  <path class="cls-8" d="m262.32,161.5c.58,2.42,1.16,4.84,1.74,7.26-.58-2.42-1.16-4.84-1.74-7.26Z"/>
  <path class="cls-8" d="m260.26,155.51c.72,2,1.45,4,2.18,6-3.72-.91-2.15-3.75-2.18-6Z"/>
  <path class="cls-5" d="m178.86,137.02c-1.06-.95-2.12-1.9-3.18-2.85,1.06.95,2.12,1.9,3.18,2.85Z"/>
  <path class="cls-5" d="m281.36,104.47c.51,1.44,1.02,2.89,1.53,4.33-.51-1.44-1.02-2.89-1.53-4.33Z"/>
  <path class="cls-8" d="m264.03,168.72c.46,1.21.92,2.43,1.39,3.64-.47.14-.95.28-1.42.42.01-1.35.02-2.71.03-4.06Z"/>
  <path class="cls-5" d="m231.93,90.95c-.4-1.36-.8-2.72-1.2-4.09.4,1.36.8,2.72,1.2,4.09Z"/>
  <path class="cls-5" d="m239.07,88.69c.36,1.35.73,2.7,1.09,4.05-.36-1.35-.73-2.7-1.09-4.05Z"/>
  <path class="cls-5" d="m242.08,99.62c1.33.37,2.66.75,3.99,1.12-1.33-.37-2.66-.75-3.99-1.12Z"/>
  <path class="cls-5" d="m285.14,174.6c.68.67,1.35,1.34,2.03,2.01,0,0-.17.15-.17.15-.67-.66-1.34-1.33-2.01-1.99,0,0,.16-.17.16-.17Z"/>
  <path class="cls-8" d="m228.41,118.26c.61.44,1.22.88,1.83,1.33-.61-.44-1.22-.88-1.83-1.33Z"/>
  <path class="cls-8" d="m230.15,119.51c.63.42,1.25.84,1.88,1.26-.63-.42-1.25-.84-1.88-1.26Z"/>
  <path class="cls-8" d="m245.05,122.64c.67.37,1.34.73,2.01,1.1-.67-.37-1.34-.73-2.01-1.1Z"/>
  <path class="cls-5" d="m279.99,102.77c.47.57.93,1.15,1.4,1.72-.47-.57-.93-1.15-1.4-1.72Z"/>
  <path class="cls-5" d="m278.39,101.31c.54.49,1.07.98,1.61,1.46-.54-.49-1.07-.98-1.61-1.46Z"/>
  <path class="cls-8" d="m259.05,153.64c.43.65.87,1.3,1.3,1.95-.43-.65-.87-1.3-1.3-1.95Z"/>
  <path class="cls-8" d="m250.69,163.59c.36-.38.71-.77,1.07-1.15-.36.38-.71.77-1.07,1.15Z"/>
  <path class="cls-5" d="m277.92,166.98c-.41-.37-.81-.74-1.22-1.11.41.37.81.74,1.22,1.11Z"/>
  <path class="cls-5" d="m279.4,118.91c-.41.39-.82.78-1.23,1.17.41-.39.82-.78,1.23-1.17Z"/>
  <path class="cls-5" d="m277.02,100.7c.45.21.9.41,1.35.61-.45-.21-.9-.41-1.35-.61Z"/>
  <path class="cls-5" d="m180.86,139.06c-.36-.36-.72-.73-1.08-1.09.36.36.72.73,1.08,1.09Z"/>
  <path class="cls-5" d="m179.87,138.05c-.36-.37-.72-.73-1.07-1.1.36.37.72.73,1.07,1.1Z"/>
  <path class="cls-5" d="m175.7,134.16c-.3-.43-.59-.85-.89-1.28.3.43.59.85.89,1.28Z"/>
  <path class="cls-8" d="m233.09,121.57c.51.36,1.03.72,1.54,1.08-.51-.36-1.03-.72-1.54-1.08Z"/>
  <path class="cls-8" d="m232.02,120.77c.4.3.8.6,1.2.9-.4-.3-.8-.6-1.2-.9Z"/>
  <path class="cls-5" d="m278.27,120c-.41.3-.82.59-1.23.89.41-.3.82-.59,1.23-.89Z"/>
  <path class="cls-1" d="m307.86,256.74c.95,10.42-2.94,19.26-8.46,27.06-2.17,3.07-7.18,5.07-11.19,5.71-10.19,1.62-20.54,2.19-31.9,3.28.92-3.92,1.49-6.35,1.82-7.78,8.66-.76,16.55-1.55,24.44-2.12,10.4-.75,15.09-7.9,15.91-16.67.64-6.83,4.6-7.72,9.36-9.48Z"/>
  <path class="cls-3" d="m298.93,85.02c1.71,2.06,4.23,3.86,4.99,6.23,2.3,7.19,3.92,14.61,5.87,22.19-7.42.1-8.7-1.08-9.79-7.07-.61-3.37-1.68-6.65-2.54-9.97-1-3.87-3.45-5.85-7.49-5.76.79-.94,1.41-2.2,2.42-2.76,2.07-1.15,4.34-1.92,6.53-2.85Z"/>
  <path class="cls-1" d="m298.93,85.02c-2.19.93-4.47,1.7-6.53,2.85-1.01.56-1.63,1.82-2.42,2.76-6.72-.38-13.44-.76-20.82-1.18-.41-1.7-.94-3.87-1.57-6.46,10.86-1.94,21.23-2.39,31.34,2.03Z"/>
  <path class="cls-8" d="m181,49.72c.07-7.97.13-15.95.2-23.92,2.28-.35,4.56-.69,6.84-1.04.3.1.6.18.91.26.06,3.58.12,7.16.19,10.73.07,2.01.15,4.02.22,6.03,0,1-.02,2-.02,3,0,.66,0,1.33,0,1.99-.14.67-.28,1.33-.42,2-.29-1.07-.41-2.23-.91-3.19-.66-1.29-1.6-2.44-2.42-3.65-.84,1.19-1.77,2.33-2.5,3.58-.79,1.35-1.39,2.8-2.08,4.2Z"/>
  <path class="cls-8" d="m179.27,97.57c.69-.59,1.98-1.19,1.98-1.78-.03-8.63-.24-17.26-.4-25.89.73.87,2.02,1.69,2.1,2.61.52,5.74.77,11.5,1.11,17.26-.35,3.63-.69,7.26-1.03,10.79-1.62.98-3.94,1.93-5.67,3.52-4.65,4.28-10.04,6.46-16.29,6.71-2,.66-4,1.33-6.01,1.99-.96.02-1.91.05-2.87.07,0,0-.26-.26-.26-.26,5.5-1.94,11.02-3.79,16.47-5.86,1.84-.7,3.47-1.96,5.19-2.96,1.89-2.07,3.78-4.14,5.67-6.21Z"/>
  <path class="cls-8" d="m203.58,37.16q5.43-5.88,10.79.32c-2.68,2.5-5.4,5.03-8.12,7.56.93-1.59,1.96-3.14,2.76-4.8.55-1.13.79-2.41,1.16-3.62-1.17,0-2.34-.04-3.5.05-1.04.08-2.07.31-3.11.48Z"/>
  <path class="cls-8" d="m206.3,45c-1.72,1.71-3.43,3.42-5.15,5.12.57-2.86,1.25-5.62,5.15-5.12Z"/>
  <path class="cls-8" d="m195.83,44.62c1.72-1.64,3.44-3.27,5.16-4.91.5,3.97-1.18,5.66-5.16,4.91Z"/>
  <path class="cls-5" d="m157.12,81.72c.81-.79,1.63-1.58,2.44-2.37.18,1.43.36,2.86.53,4.3-.99-.64-1.98-1.28-2.98-1.92Z"/>
  <path class="cls-5" d="m165.54,84.38c-.4.71-.8,1.42-1.2,2.13-.84-.86-1.67-1.72-2.51-2.57,1.23.15,2.47.3,3.7.45Z"/>
  <path class="cls-5" d="m171.06,78.78c-.68.65-1.35,1.3-2.03,1.95.68-.65,1.35-1.3,2.03-1.95Z"/>
  <path class="cls-5" d="m177.16,72.83c-.69.67-1.38,1.34-2.06,2.01.69-.67,1.38-1.34,2.06-2.01Z"/>
  <path class="cls-5" d="m169.78,69.57c.44-.38.87-.75,1.31-1.13-.44.38-.87.75-1.31,1.13Z"/>
  <path class="cls-8" d="m200.97,39.74c.5-.5,1-.99,1.5-1.49-.5.5-1,.99-1.5,1.49Z"/>
  <path class="cls-5" d="m169,80.75c-.51.5-1.02,1-1.52,1.5.51-.5,1.02-1,1.52-1.5Z"/>
  <path class="cls-5" d="m172.56,77.43c-.5.45-1,.9-1.5,1.35.5-.45,1-.9,1.5-1.35Z"/>
  <path class="cls-5" d="m175.11,74.82c-.44.49-.87.97-1.31,1.46.44-.49.87-.97,1.31-1.46Z"/>
  <path class="cls-5" d="m168.74,70.53c.37-.34.75-.69,1.12-1.03-.37.34-.75.69-1.12,1.03Z"/>
  <path class="cls-5" d="m167.65,71.25c.39-.26.78-.53,1.16-.79-.39.26-.78.53-1.16.79Z"/>
  <path class="cls-5" d="m166.64,72.21c.3-.28.6-.57.89-.85-.3.28-.6.57-.89.85Z"/>
  <path class="cls-5" d="m165.68,73.05c.27-.23.53-.46.8-.69-.27.23-.53.46-.8.69Z"/>
  <path class="cls-5" d="m164.64,74.14c.23-.24.45-.49.68-.73-.23.24-.45.49-.68.73Z"/>
  <path class="cls-5" d="m163.64,75.14c.26-.26.52-.52.78-.78-.26.26-.52.52-.78.78Z"/>
  <path class="cls-5" d="m162.63,76.26c.27-.3.53-.59.8-.89-.27.3-.53.59-.8.89Z"/>
  <path class="cls-6" d="m224.96,56.06c.3.26.61.52.91.77-.3-.26-.61-.52-.91-.77Z"/>
  <path class="cls-5" d="m173.43,76.57c-.12.32-.35.53-.68.63.23-.21.45-.42.68-.63Z"/>
  <path class="cls-6" d="m200.99,56.04c.37,0,.74,0,1.11-.01-.37,0-.74,0-1.11.01Z"/>
  <path class="cls-6" d="m144.29,56.85c.28-.25.57-.51.85-.76-.28.25-.57.51-.85.76Z"/>
  <path class="cls-5" d="m161.64,77.18c.3-.28.6-.56.9-.84-.3.28-.6.56-.9.84Z"/>
  <path class="cls-8" d="m197.29,53.91c-.37.37-.74.75-1.11,1.12.37-.37.74-.75,1.11-1.12Z"/>
  <path class="cls-8" d="m198.29,52.92c-.37.37-.74.74-1.11,1.11.37-.37.74-.74,1.11-1.11Z"/>
  <path class="cls-8" d="m199.27,51.91c-.36.37-.73.75-1.09,1.12.36-.37.73-.75,1.09-1.12Z"/>
  <path class="cls-8" d="m200.24,50.85c-.36.39-.72.78-1.08,1.17.36-.39.72-.78,1.08-1.17Z"/>
  <path class="cls-8" d="m189.07,49.89c.27.13.55.25.84.34-.28-.11-.56-.22-.84-.34Z"/>
  <path class="cls-8" d="m190.81,49.7c.08-.31.14-.63.19-.96.31-.09.61-.15.93-.2-.37.38-.74.77-1.11,1.15Z"/>
  <path class="cls-8" d="m191.81,48.67c.37-.41.75-.82,1.12-1.23-.37.41-.75.82-1.12,1.23Z"/>
  <path class="cls-5" d="m160.64,78.32c.28-.32.55-.64.83-.97-.28.32-.55.64-.83.97Z"/>
  <path class="cls-8" d="m193.74,46.68c.39-.39.78-.77,1.17-1.16-.39.39-.78.77-1.17,1.16Z"/>
  <path class="cls-8" d="m194.79,45.64c.37-.36.75-.73,1.12-1.09-.37.36-.75.73-1.12,1.09Z"/>
  <path class="cls-5" d="m159.63,79.29c.32-.31.65-.62.97-.93-.32.31-.65.62-.97.93Z"/>
  <path class="cls-5" d="m167.49,82.22c-.37.32-.74.63-1.1.95.37-.32.74-.63,1.1-.95Z"/>
  <path class="cls-8" d="m202.56,38.19c.29-.29.58-.58.87-.87-.29.29-.58.58-.87.87Z"/>
  <path class="cls-5" d="m166.45,83.1c-.27.37-.54.74-.81,1.11.27-.37.54-.74.81-1.11Z"/>
  <path class="cls-11" d="m235.2,38.65c-1.02-.42-2.05-.82-3.06-1.27-1.68-.75-3.35-1.54-5.02-2.31-.4,1.67-.81,3.34-1.21,5-5.21-4.13-10.42-8.25-15.63-12.38-.08-.3-.18-.59-.3-.87,3.79,1.12,7.59,2.24,12.06,3.56-.51-1.91-.94-3.54-1.37-5.18,4.52-2.59,17.21.61,23.25,5.87-6.74-1.84-13.48-3.68-21.69-5.92,5.02,5.22,9,9.36,12.98,13.49Z"/>
  <path class="cls-11" d="m228.61,42.93c1.22,1.44,2.45,2.87,3.67,4.31-1.22-1.44-2.45-2.87-3.67-4.31Z"/>
  <path class="cls-11" d="m236.94,52.81c.41.78.82,1.56,1.23,2.35-.41-.78-.82-1.56-1.23-2.35Z"/>
  <path class="cls-11" d="m232.52,47.53c.47.48.95.96,1.42,1.44-.47-.48-.95-.96-1.42-1.44Z"/>
  <path class="cls-11" d="m234.56,49.93c.49.59.99,1.17,1.48,1.76-.49-.59-.98-1.17-1.48-1.76Z"/>
  <path class="cls-2" d="m213.05,111.81c-3.74,3.84-9.12,1.91-11.04-3.97.38-.03.76-.06,1.14-.1.32,0,.62.06.9.2,2.69.93,5.37,1.86,8.06,2.79,0,0-.04-.04-.04-.04.33.37.65.75.98,1.12Z"/>
  <path class="cls-8" d="m212.11,110.73c-2.69-.93-5.37-1.86-8.06-2.79,2.69.93,5.37,1.86,8.06,2.79Z"/>
  <path class="cls-8" d="m199.46,106.93c-1.13-.43-2.26-.86-3.39-1.29,1.13.43,2.26.86,3.39,1.29Z"/>
  <path class="cls-8" d="m213.05,111.81c-.33-.37-.65-.75-.98-1.12,1.04.32,2.08.64,3.12.96-.71.05-1.43.1-2.14.16Z"/>
  <path class="cls-8" d="m215.05,112.77c.03-.38.06-.77.08-1.15.74.28,1.47.55,2.21.83-.13.14-.26.27-.39.4-.64-.03-1.27-.05-1.91-.08Z"/>
  <path class="cls-8" d="m203.15,107.75c-.38.03-.76.06-1.14.1-.53-.19-1.06-.38-1.58-.57.91.15,1.82.32,2.72.48Z"/>
  <path class="cls-8" d="m200.73,107.58c-.31.04-.62.09-.92.13.27-.07.55-.14.83-.2.01,0,.1.07.1.07Z"/>
  <path class="cls-2" d="m336.23,178.7c4.27,6.09,2.26,11.66-1.28,17.21-2.55,3.99-4.88,8.12-7.41,12.36-5.25-5.97-5.2-6.73-1.7-12.91,2.36-4.16,6.48-8.19,2.4-13.57,3.11-2.7,2.27-5.13-.28-7.73-.85-.87-1-2.42-1.47-3.65,1.29.25,2.58.5,3.87.76.62.12,1.25.26,1.87.38,0,0-.04-.03-.04-.03.42.62.85,1.24,1.27,1.86,0,0-.06,0-.06,0,.22.45.44.91.66,1.36,0,0-.04-.07-.04-.07.39.67.77,1.34,1.16,2.01,0,0-.07-.09-.07-.09.37.7.75,1.41,1.12,2.11Z"/>
  <path class="cls-8" d="m332.23,171.55c-.62-.13-1.25-.26-1.87-.38-1.29-.25-2.58-.5-3.87-.76.47,1.24.63,2.78,1.47,3.65,2.55,2.61,3.38,5.03.28,7.73-.43-1.01-.86-2.01-1.29-3.02-.31-.75-.46-1.64-.96-2.23-3.77-4.4-3.07-8.58.87-13.13,1.69,2.19,3.31,4.3,4.94,6.41.14.57.29,1.15.43,1.72Z"/>
  <path class="cls-11" d="m309.79,191.78c-.39-.16-.79-.32-1.18-.49.39-.17.78-.34,1.16-.51,0,.33.01.66.02,1Z"/>
  <path class="cls-8" d="m336.23,178.7c-.37-.7-.75-1.41-1.12-2.11.37.7.75,1.41,1.12,2.11Z"/>
  <path class="cls-8" d="m335.18,176.68c-.39-.67-.77-1.34-1.16-2.01.39.67.77,1.34,1.16,2.01Z"/>
  <path class="cls-8" d="m333.46,173.38c-.42-.62-.85-1.24-1.27-1.86.42.62.85,1.24,1.27,1.86Z"/>
  <path class="cls-8" d="m334.06,174.74c-.22-.45-.44-.91-.66-1.36.22.45.44.91.66,1.36Z"/>
  <path class="cls-11" d="m253.73,34.89c1.39.69,2.78,1.37,4.16,2.06-1.39-.69-2.78-1.37-4.16-2.06Z"/>
  <path class="cls-11" d="m249,32.79c.97.42,1.94.84,2.9,1.26-.97-.42-1.94-.84-2.9-1.26Z"/>
  <path class="cls-11" d="m237.5,40.99c-.46-.45-.93-.9-1.39-1.34.46.45.93.9,1.39,1.34Z"/>
  <path class="cls-11" d="m236.16,39.71c-.34-.37-.69-.75-1.03-1.13.34.37.69.75,1.03,1.13Z"/>
  <path class="cls-11" d="m246.01,31.75c.28.15.57.29.85.44-.35-.02-.63-.17-.85-.44Z"/>
  <path class="cls-2" d="m178,292.63c.81,2.33,1.32,6.46,2.49,6.66,3.82.65,7.92.08,11.8-.61.6-.11.65-3.34.95-5.13,7.06,6.43,14.11,12.86,21.63,19.71-2.33,2.21-4.19,3.96-6,5.67-6.14-5.52-12.02-10.82-17.9-16.11-.53.02-1.06.03-1.59.05-.07.32-.18.63-.32.92-.03,3.32-.06,6.65-.09,9.97,0,3.01-.01,6.02-.02,9.02-.3,1.22-.86,2.43-.86,3.65,0,6.7.63,6.39-6.85,6.31,0-2.67,0-5.34,0-8-.02-6.64-.04-13.29-.06-19.93-.15-.81-.31-1.61-.58-3.06-6.42,5.86-12.57,11.47-18.46,16.84-2.18-1.73-4.1-3.24-6.58-5.2,7.94-7.35,15.19-14.06,22.43-20.77Z"/>
  <path class="cls-5" d="m188.97,313.77c.03-3.32.06-6.65.09-9.97-.03,3.32-.06,6.65-.09,9.97Z"/>
  <path class="cls-2" d="m191.45,291.66c-.79-.98-1.59-1.97-2.38-2.95.79.98,1.59,1.97,2.38,2.95Z"/>
  <path class="cls-2" d="m191.01,285.87c.64.36,1.29.71,1.93,1.07-.64-.36-1.29-.71-1.93-1.07Z"/>
  <path class="cls-2" d="m188.88,287.77c.1-.64.21-1.29.31-1.93-.1.64-.21,1.29-.31,1.93Z"/>
  <path class="cls-2" d="m193.3,293.63c-.39-.37-.78-.73-1.17-1.1.39.37.78.73,1.17,1.1Z"/>
  <path class="cls-1" d="m191.06,14.78c-.65.49-1.33.95-1.95,1.48-2.65,2.26-5.84,2.64-7.75-.12-1.2-1.74-.46-4.81-.6-7.29,2.91.03,5.82-.05,8.71.16.57.04,1.06,1.15,1.59,1.77,0,1.33,0,2.67,0,4Z"/>
  <path class="cls-11" d="m188.04,24.76c-2.28.35-4.56.69-6.84,1.04-1.98-1.36-3.97-2.72-5.95-4.08-.73-.4-1.46-.8-2.19-1.2.8-.58,1.61-1.17,2.41-1.75,2.45,3.67,6.21,4.21,10.18,4.46.82.05,1.59,1.01,2.39,1.54Z"/>
  <path class="cls-11" d="m210,26.83c-2.02-1.33-4.04-2.65-6.06-3.98,2.91-.03,6.34-.85,6.06,3.98Z"/>
  <path class="cls-11" d="m199.23,20.36c-1.53.28-3.07.57-4.6.85.53-.94,1.06-1.89,1.6-2.83,1,.66,2,1.32,3,1.98Z"/>
  <path class="cls-11" d="m163.18,25.8c-1.06.5-2.11,1-3.17,1.49-1.48-3.83,1.84-1.93,3.04-2.55,0,0,.29.32.29.32-.03.25-.09.5-.17.74Z"/>
  <path class="cls-11" d="m203.98,22.88c-1.04-.65-2.08-1.3-3.12-1.95,1.04.65,2.08,1.3,3.12,1.95Z"/>
  <path class="cls-11" d="m194.48,21.38c-.8.48-1.61.95-2.41,1.43.8-.48,1.61-.95,2.41-1.43Z"/>
  <path class="cls-11" d="m168.31,22.02c-.76.65-1.51,1.31-2.27,1.96-.28-.05-.56-.07-.85-.06l-.22-.23c1.11-.56,2.22-1.12,3.33-1.67Z"/>
  <path class="cls-11" d="m170.1,20.8c-.62.43-1.24.85-1.86,1.28.62-.43,1.24-.85,1.86-1.28Z"/>
  <path class="cls-11" d="m192.07,22.8c-.64.42-1.29.84-1.93,1.27.64-.42,1.29-.84,1.93-1.27Z"/>
  <path class="cls-11" d="m164.93,24.73c-.3.14-.61.27-.91.41-.22-.03-.45-.06-.67-.08,0,0-.29-.32-.29-.32.64-.35,1.28-.7,1.92-1.06,0,0,.22.23.22.23-.08.27-.17.55-.26.82Z"/>
  <path class="cls-11" d="m200.92,20.99c-.39-.14-.78-.29-1.17-.43.39.14.78.29,1.17.43Z"/>
  <path class="cls-8" d="m166.07,121.78c1.66,2.32,3.32,4.64,4.98,6.96-2.7-2.33-5.58-4.48-8.03-7.04-2.35-2.45-4.45-3.28-7.61-1.36-2.93,1.78-6.19,3.01-9.3,4.49,1.55-1.75,3.09-3.49,5.02-5.67-3.99.18-7.17.32-10.36.46,3.72-2.34,7.44-4.68,11.16-7.02,0,0,.26.26.26.26,1.47,1.3,2.78,2.9,4.46,3.83,2.33,1.29,4.93,2.08,7.42,3.09.67.67,1.33,1.33,2,2Z"/>
  <path class="cls-2" d="m166.07,121.78c-.67-.67-1.33-1.33-2-2,1.7-1.02,3.41-2.03,5.11-3.05,1.79,1.73,3.57,3.46,5.36,5.19-2.82-.05-5.65-.09-8.47-.14Z"/>
  <path class="cls-2" d="m179.78,118.09c-3.36-1.67-6.24-5.71-10.67-2.2-.38-3.32,1.88-3.12,4.08-3.12,3.67-.02,6.32,1.17,6.59,5.32Z"/>
  <path class="cls-2" d="m155.07,112.79c2-.66,4-1.33,6.01-1.99-1.22,3.02-3.16,3.87-6.01,1.99Z"/>
  <path class="cls-2" d="m215.05,112.77c.64.03,1.27.05,1.91.08.03.64.05,1.27.08,1.91-.66-.66-1.32-1.33-1.99-1.99Z"/>
  <path class="cls-2" d="m180.87,119.06c-.38-.35-.76-.7-1.14-1.05.38.35.76.7,1.14,1.05Z"/>
  <path class="cls-7" d="m140.77,119.63c3.18-.14,6.37-.29,10.36-.46-1.93,2.17-3.47,3.92-5.02,5.67,0,0,.03-.02.03-.02-1.03.63-2.06,1.25-3.09,1.88,0,0-.08.04-.08.04-.61.4-1.22.8-1.83,1.2,0,0,.1-.09.1-.09-.38.34-.75.68-1.13,1.02-.31.31-.62.62-.92.93-1.35,3.69-2.69,7.39-4.04,11.08,0,0,.04-.03.04-.03-2.57.32-5.13.73-7.71.94-3.86.31-6.19,1.8-5.27,6.15,0,0,.07-.09.07-.09-.38.67-.76,1.35-1.13,2.02,0,0,.03-.06.03-.06-.37.64-.74,1.28-1.11,1.92,0,0-.02.04-.02.04-.95,2.05-1.91,4.11-2.86,6.16l.04-.06c-1.46-.22-2.91-.44-4.83-.73-.67,1.85-2.02,3.8-1.94,5.69.17,4.02,1.07,8.01,1.68,12.01-.02.29,0,.57.03.86.32,1.03.64,2.07.95,3.1.68,2.33,1.36,4.67,2.04,7-.01.32-.02.65-.02.97-2.2,4.76-5.39,7.84-10.34,6.96-1.33-1.81-2.56-2.91-3.05-4.28-.92-2.61-2.24-5.49-1.86-8.03.36-2.41,2.68-4.53,4.14-6.77.42-2.62.84-5.23,1.26-7.85,3.68-1.42,2.79-4.46,2.57-7.27l-.1.11c.42-.99.84-1.98,1.26-2.98,0,0-.06.09-.06.09.36-1.44.72-2.89,1.07-4.33-.64.39-1.29.77-1.93,1.16-.29.14-.6.22-.92.23-1.3,1.07-2.6,2.14-3.9,3.21l.08-.08c-.38.35-.77.7-1.15,1.04l.1-.1c-.38.34-.76.68-1.15,1.02l.07-.05c-.7.65-1.41,1.3-2.11,1.95l.02-.02c-.48.5-.95,1-1.43,1.5,0,0-.17.13-.17.13-3.13-.7-4.16.9-4.07,3.73l.04-.05c-.48.54-.97,1.07-1.45,1.61l-.03.04c-2.29,1.83-4.5,3.79-6.92,5.44-1.1.75-2.63.89-3.96,1.31-.19-1.51-1.04-3.41-.44-4.47,1.84-3.25,4.24-6.18,6.42-9.24,0,0-.01,0-.01,0,.5-.5.99-1,1.49-1.5,0,0,0,0,.01,0,.49-.51.98-1.01,1.47-1.52.69-10.1,1.57-20.19,1.94-30.29.11-2.95-1.28-5.96-1.99-8.94-1.03-2.67-2.06-5.33-3.09-8,1.57-10.48,9.83-13.56,19.23-8.86,0,0,.04.17.04.17,2.63,3.35,5.3,2.94,7.99.07.25-.1.5-.16.77-.18.37.07.74.13,1.11.2,1.33.28,2.66.56,4,.84.35,0,.7,0,1.05-.01,2-.66,3.99-1.31,5.99-1.97.33-.32.66-.63.99-.95,0,0,.06-.03.06-.03,1.31-3.17,2.74-6.29,3.9-9.52.86-2.38,1.37-4.89,2.04-7.34.22.16.45.33.67.49.83,5.09,1.65,10.18,2.48,15.27.31-.01.59.06.85.21-1.07,5.72,4.62,2.78,7.39,5.4-3.93.58-6.93.94-9.89,1.48-7.17,1.3-14.33,2.69-21.49,4.04l.04-.03-4.02,1.02s.03-.01.03-.01c-2.69,3.31-5.37,6.62-8.06,9.92-.27.6-.7,1.17-.79,1.8-1.09,7.57-2.25,15.13-3.06,22.74-.15,1.39,1.21,2.94,1.87,4.42.19.13.38.25.58.38-.1-.22-.19-.44-.29-.66l.3-.28c1.13-.83,2.25-1.66,3.38-2.49.36-.27.71-.54,1.07-.81.62-.43,1.24-.85,1.86-1.28l-.11.11c.37-.36.75-.72,1.12-1.08l-.1.09,1.17-.97-.05.04c.58-.47,1.16-.93,1.74-1.4,0,0-.04.06-.04.06.43-.26.86-.52,1.3-.78l-.07.05c.59-.45,1.19-.9,1.78-1.35,0,0,.33.18.33.18l-.35-.14c.43-.25.87-.5,1.3-.75l-.07.06c.58-.46,1.16-.91,1.74-1.37l.25.23-.29-.18c1.11-1,2.92-1.84,3.21-3.04.75-3.16.84-6.47,1.19-9.72.34-.26.68-.53,1.01-.79,3.98-.38,7.96-.76,11.95-1.14,0,0-.02.01-.02.01.69-.3,1.38-.61,2.07-.91,1.57-.71,3.14-1.42,4.71-2.13Z"/>
  <path class="cls-10" d="m46.98,114.81c.39,4.55.77,9.1,1.17,13.75,13.13-6.11,25.96-12.07,38.78-18.04,1.03,2.67,2.06,5.33,3.1,8-14.26,4.39-27.1,11.53-39.1,20.27-.92-1.34-1.85-2.67-2.77-4.01-.67-5.07-1.44-10.12-1.93-15.2-.15-1.55.49-3.18.76-4.77Z"/>
  <path class="cls-8" d="m159.29,94.88c-.78,3.48-1.56,6.97-2.34,10.46-14.31,1.5-28.57,3-42.84,4.49,7.16-1.35,14.32-2.74,21.49-4.04,2.96-.54,5.95-.9,9.89-1.48-2.77-2.62-8.46.32-7.39-5.4,6.53.15,13.01.19,14.69-8.28,2.17,1.42,4.34,2.83,6.5,4.25Z"/>
  <path class="cls-1" d="m59.46,78.75c-2.35-3.57-4.7-5.6-4.91-7.83-.29-2.98,1.56-6.06,5.24-5.85,3.4.19,5.7,2.79,5.05,6.05-.45,2.27-2.82,4.16-5.38,7.63Z"/>
  <path class="cls-8" d="m139.35,83.82c-.48,3.21-.98,6.42-1.45,9.64-.25,1.74-.44,3.49-.66,5.24-.83-5.09-1.65-10.18-2.48-15.27-.22-.16-.45-.33-.67-.49-.67,2.45-1.18,4.96-2.04,7.34-1.16,3.22-2.59,6.35-3.9,9.52,1.73-6.66,3.46-13.31,5.19-19.97,2,1.33,4,2.65,6,3.98Z"/>
  <path class="cls-10" d="m41.25,134.77c-2.64-8.59-2.57-17.36-1.62-26.17.14-1.29.48-2.56.73-3.84.43-.66.85-1.32,1.81-2.8,0,11.17,0,21.5,0,31.83-.31.33-.61.65-.92.98Z"/>
  <path class="cls-5" d="m114.19,101.9c-2.69,2.86-5.36,3.28-7.99-.07,2.67.02,5.33.05,7.99.07Z"/>
  <path class="cls-5" d="m106.48,99.52c.17-.78.34-1.56.52-2.33-.17.78-.34,1.56-.52,2.33Z"/>
  <path class="cls-2" d="m104.02,174.63c-1.46,2.25-3.78,4.36-4.14,6.77-.38,2.54.93,5.42,1.86,8.03.49,1.37,1.72,2.47,3.05,4.28,4.95.88,8.15-2.2,10.34-6.96.38,1.39.76,2.77,1.14,4.16l.02-.05c-.37.67-.75,1.34-1.12,2.02l.04-.05c-.32.39-.65.78-.97,1.17l.08-.08c-.39.32-.77.64-1.16.96-.11.98-.21,1.96-.32,2.94.1,1.32.21,2.64.31,3.96l-.03-.04c.39.99.79,1.99,1.18,2.98,2.54,5.49,5.07,10.97,7.61,16.46.71,1.21,1.42,2.42,2.13,3.63.36.64.72,1.27,1.08,1.91l.06.03c1.63.3,3.25.6,4.88.9l.43.21h.48q1.87.89,2.32-2.07c.6,0,1.2,0,1.8-.01,1.91,2.67,1.03,4.1-2.06,3.95-3.28-.16-6.53-.72-9.76-1.11q-3.6-7.25-14.83-5.28c.17,1.84.35,3.72.53,5.6-3.29-2.43-6.58-4.85-10.78-7.95.41,5.42.72,9.86,1.1,14.29.2,2.28.27,4.62.88,6.8,1.07,3.84.27,8.74,5.53,10.45.66.21,1.42,1.2,1.51,1.9.74,5.89,4.98,6.09,9.57,6.48,13.77,1.19,27.51,2.66,41.26,4.03-4.04.28-8.09.6-12.14.81-2.04.11-4.1.02-6.15.02,0,.48-.01.96-.02,1.43,8.45.53,16.9,1.06,25.35,1.59-1.47.66-2.89,1.71-4.41,1.9-4.55.57-9.14.8-13.71,1.16-.63,0-1.26.02-1.88.03-.67-.02-1.35-.03-2.02-.05-1.43.07-2.87.14-4.3.21-.3.04-.53-.07-.68-.32-7.62-1.32-15.25-2.62-22.87-3.97-1.39-.24-2.75-.65-4.12-.98-2.27-3.88-4.51-7.77-6.88-11.6-.23-.38-1.23-.34-1.88-.39-6.48-.51-11.75,4.23-12.22,10.97-.43.09-.86.18-1.3.28l.21-.16s-.17.2-.17.2c-.24-.44-.48-.88-.72-1.32-.28-.67-.56-1.34-.83-2.01,1.89-4.01,3.79-8.02,5.68-12.03.11-.67.21-1.33.32-2-.54-3.65-1.09-7.29-1.63-10.94-.5-7.13-1.16-14.25-1.44-21.39-.14-3.62-1.33-5.97-5.04-6.64-1.43-2.02-2.86-4.03-4.28-6.05-.26-.39-.52-.77-.78-1.16-.64-.61-1.29-1.21-1.93-1.82,0,0-.03-.05-.03-.05-1.08-4.01-.77-7.13,4.51-7.09.37.03.56.23.58.6.92.79,1.84,1.57,2.77,2.36,1.72,1.44,3.44,2.88,5.17,4.31.28,1.06.2,2.51.88,3.12,5.5,4.91,11.14,9.66,16.73,14.47-3.64-8.54-.62-19.8-10.61-25.54-2.36-5.4-3.35-10.8,0-16.21,1.95-.7,3.9-1.39,5.84-2.09Z"/>
  <path class="cls-1" d="m62.09,257.41c4.68,1.1,8.43.8,9.36,7.12,1.98,13.39,7.13,17.39,21.36,19.22,3.08.4,6.17.83,9.27.94,2.88.1,5.78-.21,9.48-.38.47,1.44,1.15,3.54,1.83,5.66-1.08.62-1.88,1.45-2.73,1.51-13.05.83-26.06,1.18-37.9-5.85-.84-.5-1.74-1.15-2.2-1.97-4.49-7.87-7.95-16.1-8.47-26.26Z"/>
  <path class="cls-7" d="m90.12,265.78c.47-6.74,5.74-11.48,12.22-10.97.65.05,1.65,0,1.88.39,2.37,3.82,4.6,7.72,6.88,11.6-1.02.39-2.04.78-3.06,1.17-.61-.04-1.21-.08-1.82-.13-.21.44-.42.89-.63,1.33,0,0-.06.1-.06.1-4.82-.15-9.65-.31-14.47-.46,0,0,.05.04.05.04-.35-.35-.7-.7-1.04-1.05,0,0,.03.04.03.04.01-.69.02-1.37.03-2.06Z"/>
  <path class="cls-5" d="m91.05,268.81c4.82.15,9.65.31,14.47.46-5.43,3.92-9.32,3.79-14.47-.46Z"/>
  <path class="cls-5" d="m90.12,265.78c-.01.69-.02,1.37-.03,2.06-.42-.6-.84-1.19-1.26-1.79.43-.09.86-.18,1.3-.28Z"/>
  <path class="cls-5" d="m105.59,269.17c.21-.45.42-.89.63-1.33-.21.45-.42.89-.63,1.33Z"/>
  <path class="cls-5" d="m90.06,267.8c.35.35.7.7,1.04,1.05-.35-.35-.7-.7-1.04-1.05Z"/>
  <path class="cls-5" d="m88.14,264.78c.24.44.48.88.72,1.32-.24-.44-.48-.88-.72-1.32Z"/>
  <path class="cls-2" d="m33.1,182.74c.42-1.65.83-3.31,1.25-4.96.61-.66,1.21-1.31,1.82-1.97v-.02c4.18-1.34,5.42.19,4.42,4.29-.38,1.55-.24,3.22-.33,4.83,0,0,.05-.08.05-.08-1.79,2.78-.98,4.69,1.97,5.88,0,0-.03-.05-.03-.05.69,1.35,1.38,2.7,2.08,4.05,0,0-.06-.08-.06-.08.46,2.18.92,4.35,1.68,7.91-3.22-1.45-5.61-2.52-8.01-3.6,0,0,.05.06.05.06-.37-.7-.74-1.39-1.11-2.09,0,0,.09.11.09.11-.43-.63-.85-1.27-1.28-1.9,0,0,.09.05.09.05-.22-.46-.43-.91-.65-1.37v.03c-.32-.68-.65-1.35-.99-2.03,0,0,0,.02,0,.02-.34-3.02-.69-6.04-1.03-9.06Z"/>
  <path class="cls-8" d="m40.25,184.91c.1-1.61-.04-3.28.33-4.83,1-4.1-.24-5.64-4.41-4.29,2.41-4.27,4.81-8.54,7.31-12.98,3.03,4.3,5.28,8.29,1.8,12.98-1.68,3.04-3.36,6.08-5.04,9.13Z"/>
  <path class="cls-8" d="m37.93,198.94c2.4,1.08,4.79,2.15,8.01,3.6-.75-3.55-1.21-5.73-1.68-7.91,4.68,4.66,2.95,9.13-.76,13.85-1.88-3.23-3.73-6.39-5.57-9.55Z"/>
  <path class="cls-8" d="m33.1,182.74c.34,3.02.69,6.04,1.03,9.06-1.91-2.84-3.87-5.68-1.03-9.06Z"/>
  <path class="cls-11" d="m39.21,147.94c-.5-3.15,1.85-3.48,3.97-3.68.31-.03.79,1.82,1.2,2.8-2.39-3.61-3.44.62-5.17.89Z"/>
  <path class="cls-8" d="m42.27,190.71c-2.95-1.19-3.76-3.1-1.97-5.88.66,1.96,1.31,3.92,1.97,5.88Z"/>
  <path class="cls-11" d="m45.86,151c3.82.41,1.83,3.17,2.04,5.04-.68-1.68-1.36-3.36-2.04-5.04Z"/>
  <path class="cls-11" d="m50.1,160.86c-.26-.15-.54-.26-.83-.33-.48-1.52-.96-3.04-1.43-4.56.75,1.63,1.51,3.26,2.26,4.88Z"/>
  <path class="cls-8" d="m44.32,194.71c-.69-1.35-1.39-2.7-2.08-4.05.69,1.35,1.39,2.7,2.08,4.05Z"/>
  <path class="cls-11" d="m44.52,147.6c.46,1.14.93,2.28,1.39,3.43-.46-1.14-.93-2.29-1.39-3.43Z"/>
  <path class="cls-8" d="m36.17,175.81c-.61.66-1.21,1.31-1.82,1.97.33-.51.66-1.02.98-1.54.3-.1.58-.24.84-.43Z"/>
  <path class="cls-8" d="m36.87,196.91c.37.7.74,1.39,1.11,2.09-.37-.7-.74-1.39-1.11-2.09Z"/>
  <path class="cls-8" d="m35.68,195.12c.43.63.85,1.27,1.28,1.9-.43-.63-.85-1.27-1.28-1.9Z"/>
  <path class="cls-8" d="m34.13,191.79c.33.68.67,1.35,1,2.03-.33-.68-.67-1.35-1-2.03Z"/>
  <path class="cls-8" d="m35.12,193.8c.22.46.44.91.65,1.37-.22-.46-.44-.91-.65-1.37Z"/>
  <path class="cls-1" d="m80.91,203.72c1.43,2.02,2.86,4.03,4.28,6.05-4.64,8.88-9.28,17.77-13.98,26.76-6.93-2.04-7.32-2.55-4.1-9.34,3.25-6.86,6.85-13.56,10.47-20.24.7-1.3,2.2-2.17,3.33-3.24Z"/>
  <path class="cls-5" d="m91.67,237.79c.54,3.65,1.09,7.29,1.63,10.94-.54-3.65-1.09-7.29-1.63-10.94Z"/>
  <path class="cls-5" d="m78.2,200.74c.64.61,1.29,1.21,1.93,1.82-.64-.61-1.29-1.21-1.93-1.82Z"/>
  <path class="cls-3" d="m85.16,160.65c-1.96,2.36-3.93,4.71-5.89,7.07-5.3-9.87-10.59-19.75-16.03-29.88,3.1-1.57,5.39-2.73,7.32-3.71,4.94,8.96,9.77,17.74,14.6,26.52Z"/>
  <path class="cls-5" d="m88.59,159.28c-.5.5-.99,1-1.49,1.5.5-.5.99-1,1.49-1.5Z"/>
  <path class="cls-5" d="m90.07,157.75c-.49.51-.98,1.01-1.47,1.52.49-.51.98-1.01,1.47-1.52Z"/>
  <path class="cls-5" d="m181.19,304.82c.02,6.64.04,13.29.06,19.93-.02-6.64-.04-13.29-.06-19.93Z"/>
  <path class="cls-2" d="m177.16,286.94c.84-.68,1.68-1.88,2.53-1.88.75,0,2.19,1.4,2.11,2.04-.15,1.28-1.13,2.45-1.77,3.67-.01-1.98,1.07-4.79-2.87-3.83Z"/>
  <path class="cls-2" d="m180.04,290.75c-.34.34-.69.68-1.03,1.02.34-.34.69-.68,1.03-1.02Z"/>
  <path class="cls-1" d="m138.77,272.06c1.43-.07,2.87-.14,4.3-.21.67.02,1.35.03,2.02.05.63-.01,1.26-.02,1.88-.03.04.35.07.69.11,1.04,2.44,5.56,4.87,11.11,7.31,16.67-2.44.77-4.87,1.54-7.31,2.31-2.77-6.61-5.54-13.21-8.31-19.82Z"/>
  <path class="cls-3" d="m91.18,200.87c-1.72-1.44-3.44-2.88-5.16-4.31.27-.28.54-.56.8-.84.93-1.3,1.74-2.71,2.8-3.89,4.15-4.6,4.25-7.71.2-12.13-1.21-1.32-2.47-2.6-3.7-3.9,2.04-2.02,4.07-4.05,6.11-6.07,1.98,2.33,3.97,4.66,5.95,6.99-3.34,5.4-2.35,10.81,0,16.21-2.33,2.65-4.67,5.3-7,7.95Z"/>
  <path class="cls-5" d="m86.82,195.72c-.27.28-.54.56-.8.84-.92-.79-1.84-1.57-2.77-2.36,1.19.5,2.38,1.01,3.57,1.51Z"/>
  <path class="cls-11" d="m17.16,181.79c-.34-.33-.68-.66-1.02-.99.34.33.68.66,1.02.99Z"/>
  <path class="cls-2" d="m180.23,192.72c-4.96-1.94-8.72-4.7-8.4-10.85.1-1.93-.56-3.91-.9-5.86-1.1-6.27-.44-7.06,6.12-7.21-.3,1.69-.6,3.38-.89,5.07,0,0,0,0,0,0-.36.99-.72,1.99-1.08,2.98-.53,5.76,2.12,10.42,5.16,14.94-.12.31-.12.63,0,.94Z"/>
  <path class="cls-8" d="m135.09,225.77c-.6,0-1.2,0-1.8.01.08-11.06-1.8-22.29,2.9-32.94l-.05.05c.37-.35.73-.7,1.1-1.06.27-.03.53-.07.79-.11l.14.11c-.7,9.32-1.4,18.63-2.1,27.95-.32.66-.64,1.33-.97,1.99,0,1.33,0,2.67-.01,4Z"/>
  <path class="cls-2" d="m181.2,212.82c-4.09-2.6-8.18-5.2-12.26-7.81.84-.3,2.14-1.12,2.44-.84,9.25,8.47,19.8,7.9,30.8,4.67.91-.27,1.97,0,2.96.02-5.36,1.66-10.72,3.32-16.08,4.97l-6-1c-.62,0-1.24,0-1.86-.01Z"/>
  <path class="cls-2" d="m135.06,248.88c-4.27-.34-8.8.07-12.73-1.27-3.27-1.11-5.31-4.46-5.37-8.57-.03-1.74-1.27-3.45-1.95-5.18,2.97-.07,5.02.61,5.16,4.29.25,6.49,3.67,9.42,10.35,9.67,1.53.06,3.04.68,4.55,1.05Z"/>
  <path class="cls-1" d="m181.16,140.91c2.58.29,5.15.57,7.73.86.07,1.62.15,3.24.22,4.86-2.37.34-4.75.69-7.12,1.03-.28-2.25-.55-4.5-.83-6.74Z"/>
  <path class="cls-5" d="m150.92,206.76c.1,2,.2,4,.29,5.99.09,11.63.17,23.27.26,34.9-.46-.96-1.32-1.91-1.32-2.88-.09-11.92-.08-23.84-.03-35.76,0-.75.52-1.51.8-2.26Z"/>
  <path class="cls-5" d="m205.17,183.8c-.84-4.58-1.68-9.16-2.52-13.74,4.5,3.18,5.79,10.2,2.52,13.74Z"/>
  <path class="cls-5" d="m184.98,164.71c4.65-3.31,9.01-2.67,13.13,1.01-.18.22-.36.43-.54.65-4.07-.41-8.14-.81-12.21-1.22-.12-.15-.25-.29-.38-.43Z"/>
  <path class="cls-5" d="m176.16,173.85c.3-1.69.6-3.38.89-5.06,1.32-.69,2.64-1.37,3.96-2.06.2.2.41.4.62.6-.95,1.11-1.9,2.22-2.85,3.32-.87,1.06-1.74,2.13-2.61,3.19Z"/>
  <path class="cls-5" d="m157.39,197.1c-1.27,1.36-2.55,2.72-3.82,4.08-.5-3.03,1-4.17,3.82-4.08Z"/>
  <path class="cls-5" d="m202.76,170.16c-.87-.57-1.74-1.14-2.61-1.71-.86-.7-1.73-1.39-2.59-2.09.18-.22.36-.43.54-.65,1.55,1.48,3.1,2.96,4.65,4.44Z"/>
  <path class="cls-5" d="m161.1,196.7c-1.24.14-2.49.29-3.73.43.43-.74.87-1.48,1.3-2.23.81.6,1.62,1.2,2.43,1.8Z"/>
  <path class="cls-5" d="m153.55,201.2c-.82,1.56-1.64,3.12-2.46,4.67.82-1.56,1.64-3.12,2.46-4.67Z"/>
  <path class="cls-8" d="m141.63,187.04c1.09-.84,2.17-1.67,3.26-2.51-1.09.84-2.17,1.67-3.26,2.51Z"/>
  <path class="cls-2" d="m209.12,206.86c-1.34.68-2.67,1.36-4.01,2.03,1.34-.68,2.67-1.36,4.01-2.03Z"/>
  <path class="cls-2" d="m113.97,232.97c-.95-.73-1.9-1.46-2.86-2.19.95.73,1.9,1.46,2.86,2.19Z"/>
  <path class="cls-2" d="m135.1,221.77c.32-.66.64-1.33.97-1.99-.32.66-.64,1.33-.97,1.99Z"/>
  <path class="cls-8" d="m139.2,189.04c.42-.25.84-.5,1.26-.75-.45.85-.9,1.71-1.35,2.56l-.25-.27c.11-.51.23-1.03.34-1.54Z"/>
  <path class="cls-5" d="m162.97,198.97c-.61-.74-1.22-1.48-1.84-2.22.61.74,1.22,1.48,1.84,2.22Z"/>
  <path class="cls-5" d="m181.01,166.73l1.98-1.04.29.35c-.55.43-1.1.86-1.65,1.3-.21-.2-.41-.4-.62-.6Z"/>
  <path class="cls-2" d="m212.12,204.85c-.67.36-1.35.73-2.02,1.09.67-.36,1.35-.73,2.02-1.09Z"/>
  <path class="cls-2" d="m217.19,199.77c-.38.35-.76.7-1.14,1.04.37-.66.75-1.32,1.12-1.98-.13.31-.12.63.02.94Z"/>
  <path class="cls-5" d="m182.99,165.69c.66-.33,1.33-.65,1.99-.98.13.14.25.29.38.43-.69.3-1.39.6-2.08.9l-.29-.35Z"/>
  <path class="cls-2" d="m110.04,229.91c-.37-.34-.74-.69-1.11-1.03.37.34.74.69,1.11,1.03Z"/>
  <path class="cls-8" d="m144.82,184.59c.41-.23.83-.45,1.24-.68-.41.23-.83.45-1.24.68Z"/>
  <path class="cls-8" d="m140.6,188.17c.25-.27.49-.54.73-.81-.25.27-.49.54-.73.81Z"/>
  <path class="cls-8" d="m139.11,190.85c-.31.33-.63.66-.94.99,0,0-.14-.11-.14-.11.28-.38.56-.76.83-1.15,0,0,.25.27.25.27Z"/>
  <path class="cls-2" d="m216.06,200.8c-.32.37-.65.73-.97,1.1.32-.37.65-.73.97-1.1Z"/>
  <path class="cls-2" d="m215.15,201.84c-.35.36-.7.72-1.05,1.08.35-.36.7-.72,1.05-1.08Z"/>
  <path class="cls-2" d="m214.17,202.85c-.35.36-.71.71-1.06,1.07.35-.36.71-.71,1.06-1.07Z"/>
  <path class="cls-2" d="m213.17,203.86c-.37.34-.73.68-1.1,1.02.37-.34.73-.68,1.1-1.02Z"/>
  <path class="cls-2" d="m210.18,205.86c-.36.34-.73.68-1.09,1.02.36-.34.73-.68,1.09-1.02Z"/>
  <path class="cls-2" d="m111.1,230.77c-.38-.31-.75-.61-1.13-.92.38.31.75.61,1.13.92Z"/>
  <path class="cls-2" d="m115.05,233.9c-.38-.34-.76-.67-1.14-1.01.38.34.76.67,1.14,1.01Z"/>
  <path class="cls-3" d="m183.06,212.83c2,.33,4,.67,6,1-.07,4.01-.14,8.02-.22,12.04-.59-.06-1.19-.11-1.78-.17-.45-3.46-.9-6.92-1.47-11.34-.14-.08-1.34-.81-2.53-1.53Z"/>
  <path class="cls-1" d="m183.06,212.83c1.2.72,2.39,1.45,2.53,1.53.57,4.42,1.02,7.88,1.47,11.34-1.96.34-3.91.69-5.87,1.03,0-4.64,0-9.27,0-13.91.62,0,1.24,0,1.86.01Z"/>
  <path class="cls-2" d="m170.89,239.52c-.36.37-.72.74-1.09,1.11.36-.37.72-.74,1.09-1.11Z"/>
  <path class="cls-2" d="m161.04,263.94c-.69.27-1.37.54-2.06.81.69-.27,1.37-.54,2.06-.81Z"/>
  <path class="cls-2" d="m167.13,255.63c3.56-.38,7.12-.76,10.68-1.13-1.31,1.08-2.61,3.03-3.92,3.03-2.25,0-4.5-1.2-6.75-1.9Z"/>
  <path class="cls-2" d="m189.08,251.73c.49.52.99,1.04,1.48,1.55-.49-.52-.99-1.04-1.48-1.55Z"/>
  <path class="cls-2" d="m190.57,253.32c.31.34.61.68.92,1.02-.31-.34-.61-.68-.92-1.02Z"/>
  <path class="cls-2" d="m177.75,254.57c.37-.36.74-.71,1.11-1.07-.37.36-.74.71-1.11,1.07Z"/>
  <path class="cls-2" d="m178.78,253.58c.4-.32.8-.64,1.2-.97-.4.32-.8.64-1.2.97Z"/>
  <path class="cls-2" d="m267.01,195.8c-.65.36-1.3.72-1.95,1.08-.44-3.12.25-5.53,2.85-7.85,1.95-1.74,2.75-4.78,4.07-7.25-.21,2.72-.34,5.45-.68,8.15-.17,1.39-.73,2.73-1.12,4.09,0,0,.06-.1.06-.1-.4.32-.8.63-1.21.95,0,0,.06-.03.06-.03-.69.32-1.39.64-2.08.95Z"/>
  <path class="cls-5" d="m270.18,194.03c.39-1.36.95-2.7,1.12-4.09.34-2.7.46-5.43.68-8.15.04-.7.07-1.4.11-2.11.98,1.43,1.95,2.87,2.93,4.3.33,1.2.66,2.4.98,3.59-1.37,2.09-2.74,4.17-4.12,6.26-.57.07-1.14.14-1.71.21Z"/>
  <path class="cls-5" d="m271.81,176.4c.06.79.12,1.58.18,2.37-.67-.63-1.34-1.26-2.01-1.89.61-.16,1.22-.32,1.83-.49Z"/>
  <path class="cls-8" d="m265.37,172.42c.21.46.41.92.62,1.38-.21-.46-.41-.92-.62-1.38Z"/>
  <path class="cls-5" d="m267.01,195.8c.69-.32,1.39-.64,2.08-.95-.69.32-1.39.64-2.08.95Z"/>
  <path class="cls-5" d="m269.03,194.88c.4-.32.8-.63,1.21-.95-.4.32-.8.63-1.21.95Z"/>
  <path class="cls-8" d="m122.2,147.93c-.92-4.35,1.41-5.84,5.27-6.15,2.58-.2,5.14-.62,7.71-.94-1.69.93-3.48,2.77-5.06,2.6-3.99-.42-5.99,1.75-7.92,4.48Z"/>
  <path class="cls-8" d="m135.14,140.88c1.35-3.69,2.69-7.39,4.04-11.08-.21,4.11.77,8.65-4.04,11.08Z"/>
  <path class="cls-8" d="m118.03,157.62c-.28.11-.56.21-.85.3.95-2.05,1.91-4.11,2.86-6.16-.67,1.95-1.34,3.91-2.01,5.86Z"/>
  <path class="cls-8" d="m143.04,126.69c1.03-.63,2.06-1.25,3.09-1.88-1.03.63-2.06,1.25-3.09,1.88Z"/>
  <path class="cls-8" d="m141.13,127.93c.61-.4,1.22-.8,1.83-1.2-.61.4-1.22.8-1.83,1.2Z"/>
  <path class="cls-8" d="m121.14,149.86c.38-.67.76-1.35,1.13-2.02-.38.67-.76,1.35-1.13,2.02Z"/>
  <path class="cls-8" d="m120.06,151.72c.37-.64.74-1.28,1.11-1.92-.37.64-.74,1.28-1.11,1.92Z"/>
  <path class="cls-8" d="m140.11,128.87c.38-.34.75-.68,1.13-1.02-.38.34-.75.68-1.13,1.02Z"/>
  <path class="cls-2" d="m177.22,124.64c-.77-.78-1.54-1.57-2.3-2.35.77.78,1.54,1.57,2.3,2.35Z"/>
  <path class="cls-8" d="m117.22,157.85c-1.05,3.98-2.11,7.95-3.16,11.93,0,0-.22.2-.22.2,0,0,.11.28.11.28-.22.84-.43,1.67-.65,2.51-.09.61-.18,1.22-.27,1.83-.31.06-.61.14-.91.24-.6-4-1.51-7.99-1.68-12.01-.08-1.89,1.27-3.84,1.94-5.69,1.92.29,3.38.51,4.83.73Z"/>
  <path class="cls-5" d="m116.64,137.35c1.12-4.37-.59-9.72,4.4-12.76-.35,3.25-.44,6.57-1.19,9.72-.28,1.2-2.09,2.04-3.21,3.04Z"/>
  <path class="cls-8" d="m110.15,110.81c-2.02,3.85-2.79,8.71-8.06,9.92,2.69-3.31,5.37-6.62,8.06-9.92Z"/>
  <path class="cls-5" d="m113.11,175.76c3.86,3.15,4.36,7.48,4.21,12.04-.01.65-.02,1.31-.04,1.96-.08.33-.17.66-.25.98-.25.07-.5.12-.75.17-.38-1.39-.76-2.77-1.14-4.16,0-.32,0-.65.02-.97,2.11-3.15.24-5.14-2.04-7-.32-1.03-.64-2.07-.95-3.1,0,0,.47.1.47.1h.48Z"/>
  <path class="cls-5" d="m122.05,123.79c3.68-3.51,7.86-1.88,11.95-1.14-3.98.38-7.96.76-11.95,1.14Z"/>
  <path class="cls-5" d="m116.08,101.92c3.67-.64,7.34-1.29,11.01-1.93.02.26.03.53.03.79-2,.66-3.99,1.31-5.99,1.97-.35,0-.7,0-1.05.01-1.33-.28-2.66-.56-4-.84Z"/>
  <path class="cls-2" d="m113.1,178.78c2.29,1.87,4.15,3.85,2.04,7-.68-2.33-1.36-4.67-2.04-7Z"/>
  <path class="cls-8" d="m105.28,166.78c.86-2.42,1.71-4.84,2.57-7.26.23,2.8,1.11,5.84-2.57,7.26Z"/>
  <path class="cls-5" d="m97.53,162.41c-1.36,1.24-2.71,2.48-4.07,3.73-.09-2.82.93-4.43,4.07-3.73Z"/>
  <path class="cls-8" d="m108.95,156.74c-.29-1.06-.57-2.11-.86-3.17.64-.39,1.29-.77,1.93-1.16-.36,1.44-.72,2.89-1.07,4.33Z"/>
  <path class="cls-5" d="m107.17,153.8c-1.3,1.07-2.6,2.14-3.9,3.21,1.3-1.07,2.6-2.14,3.9-3.21Z"/>
  <path class="cls-5" d="m100.69,149.12c1.12-.83,2.25-1.66,3.38-2.49-1.12.83-2.25,1.66-3.38,2.49Z"/>
  <path class="cls-8" d="m114.14,109.81c-1.34.34-2.68.68-4.02,1.02,1.34-.34,2.68-.68,4.02-1.02Z"/>
  <path class="cls-8" d="m107.74,159.62c.42-.99.84-1.98,1.26-2.98-.42.99-.84,1.98-1.26,2.98Z"/>
  <path class="cls-5" d="m101.22,158.85c-.7.65-1.41,1.3-2.11,1.95.7-.65,1.41-1.3,2.11-1.95Z"/>
  <path class="cls-5" d="m133.98,122.67c.69-.3,1.38-.61,2.07-.91-.69.3-1.38.61-2.07.91Z"/>
  <path class="cls-5" d="m114.94,138.66c.58-.45,1.16-.91,1.74-1.36-.58.45-1.16.91-1.74,1.36Z"/>
  <path class="cls-5" d="m111.95,140.67c.59-.45,1.19-.9,1.78-1.35-.59.45-1.19.9-1.78,1.35Z"/>
  <path class="cls-5" d="m109.02,142.74c.58-.47,1.16-.93,1.74-1.4-.58.47-1.16.93-1.74,1.4Z"/>
  <path class="cls-5" d="m105.13,145.82c.62-.42,1.24-.85,1.86-1.27-.62.42-1.24.85-1.86,1.27Z"/>
  <path class="cls-5" d="m93.51,166.08c-.48.54-.97,1.07-1.45,1.61.48-.54.97-1.07,1.45-1.61Z"/>
  <path class="cls-5" d="m99.13,160.78c-.48.5-.95,1-1.43,1.5.48-.5.95-1,1.43-1.5Z"/>
  <path class="cls-5" d="m102.3,157.88c-.38.34-.76.68-1.15,1.02.38-.34.76-.68,1.15-1.02Z"/>
  <path class="cls-5" d="m100.11,149.69s.29-.28.29-.29c.1.22.19.44.29.66-.19-.13-.38-.25-.58-.38Z"/>
  <path class="cls-5" d="m106.88,144.65c.37-.36.75-.72,1.12-1.08-.37.36-.75.72-1.12,1.08Z"/>
  <path class="cls-5" d="m107.9,143.67c.39-.32.78-.65,1.17-.97-.39.32-.78.65-1.17.97Z"/>
  <path class="cls-5" d="m110.72,141.4c.43-.26.86-.52,1.29-.78-.43.26-.86.52-1.29.78Z"/>
  <path class="cls-5" d="m103.35,156.93c-.38.35-.77.7-1.15,1.04.38-.35.77-.7,1.15-1.04Z"/>
  <path class="cls-8" d="m127.11,100.78c0-.26-.01-.53-.03-.79.34-.05.68-.11,1.02-.16-.33.32-.66.63-.99.95Z"/>
  <path class="cls-5" d="m113.72,139.36c.43-.25.87-.5,1.3-.75-.43.25-.87.5-1.3.75Z"/>
  <path class="cls-8" d="m120.07,102.76c.35,0,.7,0,1.05-.01-.35,0-.7,0-1.05.01Z"/>
  <path class="cls-1" d="m103.9,81.82c-1,3.68-1.56,5.72-2.07,7.59-7.21.43-14.3.93-21.4,1.23-3.96.17-6.08,2.43-7.11,5.87-1.22,4.07-2.5,8.16-3.18,12.34-.87,5.45-5.61,3.32-8.57,5.08,1.05-9.69,1.38-19.83,8.12-26.92,3.26-3.43,9.87-4.27,15.15-5,5.94-.82,12.08-.19,19.05-.19Z"/>
  <path class="cls-5" d="m112.84,197.82c.1,1.32.21,2.64.31,3.96-.1-1.32-.21-2.64-.31-3.96Z"/>
  <path class="cls-5" d="m145.09,271.9c-.67-.02-1.35-.03-2.02-.05.67.02,1.35.03,2.02.05Z"/>
  <path class="cls-5" d="m113.13,201.73l1.18,2.98c-.39-.99-.79-1.99-1.18-2.98Z"/>
  <path class="cls-5" d="m116.29,190.87c-.37.67-.75,1.34-1.12,2.02.37-.67.75-1.34,1.12-2.02Z"/>
  <path class="cls-5" d="m115.21,192.83c-.32.39-.65.78-.97,1.17.32-.39.65-.78.97-1.17Z"/>
  <path class="cls-5" d="m114.32,193.92c-.39.32-.77.64-1.16.96.39-.32.77-.64,1.16-.96Z"/>
  <path class="cls-5" d="m176.16,173.85c-.36.99-.72,1.99-1.08,2.98.36-.99.72-1.99,1.08-2.98Z"/>
</svg>